<svg width="369" height="150" viewBox="0 0 369 150" fill="none" xmlns="http://www.w3.org/2000/svg">
<path d="M1 74C1 72.8954 1.89543 72 3 72H165C166.105 72 167 72.8954 167 74V102C167 103.105 166.105 104 165 104H3C1.89543 104 1 103.105 1 102V74Z" fill="#0089FF"/>
<path d="M58.5 95C54.65 95 51.5 91.85 51.5 88C51.5 84.15 54.65 81 58.5 81C62.35 81 65.5 84.15 65.5 88C65.5 91.85 62.35 95 58.5 95Z" stroke="white" stroke-miterlimit="10" stroke-linecap="round" stroke-linejoin="round"/>
<path d="M55.5 87.9L57.2 89.6C57.35 89.75 57.6 89.75 57.8 89.6L61.2 86.2" stroke="white" stroke-miterlimit="10" stroke-linecap="round" stroke-linejoin="round"/>
<path d="M76.7915 88.3818V92H75.5728V82.7578H78.9814C79.9928 82.7578 80.7842 83.016 81.3555 83.5322C81.931 84.0485 82.2188 84.7319 82.2188 85.5825C82.2188 86.4797 81.9373 87.1715 81.3745 87.6582C80.8159 88.1406 80.014 88.3818 78.9688 88.3818H76.7915ZM76.7915 87.3853H78.9814C79.6331 87.3853 80.1325 87.2329 80.4795 86.9282C80.8265 86.6193 81 86.175 81 85.5952C81 85.0451 80.8265 84.605 80.4795 84.2749C80.1325 83.9448 79.6564 83.7734 79.0513 83.7607H76.7915V87.3853ZM87.7539 92C87.6862 91.8646 87.6312 91.6234 87.5889 91.2764C87.043 91.8434 86.3913 92.127 85.6338 92.127C84.9567 92.127 84.4002 91.9365 83.9644 91.5557C83.5327 91.1706 83.3169 90.6839 83.3169 90.0957C83.3169 89.3805 83.5877 88.8262 84.1294 88.4326C84.6753 88.0348 85.4412 87.8359 86.4272 87.8359H87.5698V87.2964C87.5698 86.8859 87.4471 86.5601 87.2017 86.3188C86.9562 86.0734 86.5944 85.9507 86.1162 85.9507C85.6973 85.9507 85.346 86.0565 85.0625 86.2681C84.779 86.4797 84.6372 86.7357 84.6372 87.0361H83.4565C83.4565 86.6934 83.5771 86.3633 83.8184 86.0459C84.0638 85.7243 84.3939 85.4704 84.8086 85.2842C85.2275 85.098 85.6867 85.0049 86.186 85.0049C86.9774 85.0049 87.5973 85.2038 88.0459 85.6016C88.4945 85.9951 88.7272 86.5389 88.7441 87.2329V90.394C88.7441 91.0246 88.8245 91.526 88.9854 91.8984V92H87.7539ZM85.8052 91.105C86.1733 91.105 86.5225 91.0098 86.8525 90.8193C87.1826 90.6289 87.4217 90.3813 87.5698 90.0767V88.6675H86.6494C85.2106 88.6675 84.4912 89.0885 84.4912 89.9307C84.4912 90.2988 84.6139 90.5866 84.8594 90.7939C85.1048 91.0013 85.4201 91.105 85.8052 91.105ZM93.3398 91.1685C93.7588 91.1685 94.1248 91.0415 94.438 90.7876C94.7511 90.5337 94.9246 90.2163 94.9585 89.8354H96.0693C96.0482 90.229 95.9128 90.6035 95.6631 90.959C95.4134 91.3145 95.0791 91.598 94.6602 91.8096C94.2454 92.0212 93.8053 92.127 93.3398 92.127C92.4046 92.127 91.6598 91.8159 91.1055 91.1938C90.5553 90.5675 90.2803 89.7127 90.2803 88.6294V88.4326C90.2803 87.764 90.403 87.1694 90.6484 86.6489C90.8939 86.1284 91.2451 85.7243 91.7021 85.4365C92.1634 85.1488 92.7072 85.0049 93.3335 85.0049C94.1037 85.0049 94.7427 85.2355 95.2505 85.6968C95.7625 86.158 96.0355 86.7568 96.0693 87.4932H94.9585C94.9246 87.0488 94.7554 86.6849 94.4507 86.4014C94.1502 86.1136 93.7778 85.9697 93.3335 85.9697C92.7368 85.9697 92.2734 86.1855 91.9434 86.6172C91.6175 87.0446 91.4546 87.6646 91.4546 88.4771V88.6992C91.4546 89.4906 91.6175 90.0999 91.9434 90.5273C92.2692 90.9548 92.7347 91.1685 93.3398 91.1685ZM102.576 92H101.395V89.5117C100.879 89.6471 100.35 89.7148 99.8081 89.7148C98.9491 89.7148 98.2931 89.4948 97.8403 89.0547C97.3918 88.6146 97.1632 87.9883 97.1548 87.1758V85.1255H98.3291V87.2139C98.3503 88.238 98.8433 88.75 99.8081 88.75C100.35 88.75 100.879 88.6823 101.395 88.5469V85.1318H102.576V92ZM107.311 92.127C106.38 92.127 105.623 91.8223 105.039 91.2129C104.455 90.5993 104.163 89.7804 104.163 88.7563V88.5405C104.163 87.8592 104.292 87.252 104.55 86.7188C104.812 86.1813 105.176 85.7624 105.642 85.4619C106.111 85.1572 106.619 85.0049 107.165 85.0049C108.058 85.0049 108.752 85.299 109.247 85.8872C109.742 86.4754 109.99 87.3175 109.99 88.4136V88.9023H105.337C105.354 89.5794 105.551 90.1274 105.927 90.5464C106.308 90.9611 106.791 91.1685 107.375 91.1685C107.789 91.1685 108.14 91.0838 108.428 90.9146C108.716 90.7453 108.968 90.521 109.184 90.2417L109.901 90.8003C109.325 91.6847 108.462 92.127 107.311 92.127ZM107.165 85.9697C106.691 85.9697 106.293 86.1432 105.972 86.4902C105.65 86.833 105.451 87.3154 105.375 87.9375H108.815V87.8486C108.782 87.252 108.621 86.7907 108.333 86.4648C108.045 86.1348 107.656 85.9697 107.165 85.9697ZM105.115 83.2974C105.115 83.1069 105.172 82.9482 105.286 82.8213C105.405 82.6901 105.578 82.6245 105.807 82.6245C106.035 82.6245 106.209 82.6901 106.327 82.8213C106.446 82.9482 106.505 83.1069 106.505 83.2974C106.505 83.4878 106.446 83.6465 106.327 83.7734C106.209 83.9004 106.035 83.9639 105.807 83.9639C105.578 83.9639 105.405 83.9004 105.286 83.7734C105.172 83.6465 105.115 83.4878 105.115 83.2974ZM107.844 83.3101C107.844 83.1196 107.901 82.9588 108.016 82.8276C108.134 82.6965 108.308 82.6309 108.536 82.6309C108.765 82.6309 108.938 82.6965 109.057 82.8276C109.175 82.9588 109.234 83.1196 109.234 83.3101C109.234 83.5005 109.175 83.6592 109.057 83.7861C108.938 83.9131 108.765 83.9766 108.536 83.9766C108.308 83.9766 108.134 83.9131 108.016 83.7861C107.901 83.6592 107.844 83.5005 107.844 83.3101ZM116.382 86.084H114.078V92H112.903V86.084H110.644V85.1318H116.382V86.084Z" fill="white"/>
<path d="M12.6405 135.93H4.2895C3.30954 135.93 2.5 135.12 2.5 134.14V125.789C2.5 124.81 3.30954 124 4.2895 124H10.851C12.257 125.406 13.024 126.173 14.43 127.579V134.14C14.43 135.12 13.6205 135.93 12.6405 135.93Z" stroke="#0089FF" stroke-miterlimit="10" stroke-linecap="round" stroke-linejoin="round"/>
<path d="M5.39728 124.213V128.048H11.5327" stroke="#0089FF" stroke-miterlimit="10" stroke-linecap="round" stroke-linejoin="round"/>
<path d="M35.3325 137.615H33.9336V135H26.2798V137.622H24.8735L24.8662 133.85H25.7378C26.1968 133.333 26.5605 132.639 26.8291 131.77C27.1025 130.896 27.2734 129.939 27.3418 128.899L27.5762 124.336H33.9556V133.85H35.3472L35.3325 137.615ZM27.3418 133.85H32.542V125.493H28.9312L28.7773 128.628C28.7139 129.854 28.5503 130.898 28.2866 131.763C28.0278 132.627 27.7129 133.323 27.3418 133.85ZM36.4458 130.964C36.4458 130.188 36.5972 129.49 36.8999 128.87C37.2075 128.25 37.6323 127.771 38.1743 127.434C38.7212 127.097 39.3438 126.929 40.042 126.929C41.1211 126.929 41.9927 127.302 42.6567 128.049C43.3257 128.796 43.6602 129.79 43.6602 131.03V131.125C43.6602 131.897 43.5112 132.59 43.2134 133.206C42.9204 133.816 42.498 134.292 41.9463 134.634C41.3994 134.976 40.7695 135.146 40.0566 135.146C38.9824 135.146 38.1108 134.773 37.4419 134.026C36.7778 133.279 36.4458 132.29 36.4458 131.06V130.964ZM37.8081 131.125C37.8081 132.004 38.0107 132.71 38.416 133.242C38.8262 133.774 39.373 134.041 40.0566 134.041C40.7451 134.041 41.292 133.772 41.6973 133.235C42.1025 132.693 42.3052 131.936 42.3052 130.964C42.3052 130.095 42.0977 129.392 41.6826 128.855C41.2725 128.313 40.7256 128.042 40.042 128.042C39.373 128.042 38.8335 128.308 38.4233 128.84C38.0132 129.373 37.8081 130.134 37.8081 131.125ZM48.8384 127.529C49.8345 127.529 50.6304 127.864 51.2261 128.533C51.8267 129.197 52.127 130.073 52.127 131.162V131.287C52.127 132.034 51.9829 132.703 51.6948 133.293C51.4067 133.879 50.9917 134.336 50.4497 134.663C49.9126 134.985 49.2925 135.146 48.5894 135.146C47.5249 135.146 46.668 134.792 46.0186 134.084C45.3691 133.372 45.0444 132.417 45.0444 131.221V130.562C45.0444 128.896 45.3521 127.573 45.9673 126.592C46.5874 125.61 47.5005 125.012 48.7065 124.797C49.3901 124.675 49.8516 124.526 50.0908 124.351C50.3301 124.175 50.4497 123.933 50.4497 123.625H51.563C51.563 124.236 51.4238 124.712 51.1455 125.054C50.8721 125.396 50.4326 125.637 49.8271 125.779L48.8164 126.006C48.0107 126.196 47.4053 126.519 47 126.973C46.5996 127.422 46.3384 128.022 46.2163 128.774C46.9341 127.944 47.8081 127.529 48.8384 127.529ZM48.5747 128.643C47.9106 128.643 47.3833 128.867 46.9927 129.316C46.6021 129.761 46.4067 130.378 46.4067 131.169V131.287C46.4067 132.136 46.6021 132.81 46.9927 133.308C47.3882 133.801 47.9204 134.048 48.5894 134.048C49.2632 134.048 49.7954 133.799 50.186 133.301C50.5767 132.803 50.772 132.075 50.772 131.118C50.772 130.371 50.5742 129.773 50.1787 129.324C49.7881 128.87 49.2534 128.643 48.5747 128.643ZM58.543 135C58.4648 134.844 58.4014 134.565 58.3525 134.165C57.7227 134.819 56.9707 135.146 56.0967 135.146C55.3154 135.146 54.6733 134.927 54.1704 134.487C53.6724 134.043 53.4233 133.481 53.4233 132.803C53.4233 131.978 53.7358 131.338 54.3608 130.884C54.9907 130.425 55.8745 130.195 57.0122 130.195H58.3306V129.573C58.3306 129.099 58.189 128.723 57.9058 128.445C57.6226 128.162 57.2051 128.02 56.6533 128.02C56.1699 128.02 55.7646 128.142 55.4375 128.386C55.1104 128.63 54.9468 128.926 54.9468 129.272H53.5845C53.5845 128.877 53.7236 128.496 54.002 128.13C54.2852 127.759 54.666 127.466 55.1445 127.251C55.6279 127.036 56.1577 126.929 56.7339 126.929C57.647 126.929 58.3623 127.158 58.8799 127.617C59.3975 128.071 59.666 128.699 59.6855 129.5V133.147C59.6855 133.875 59.7783 134.453 59.9639 134.883V135H58.543ZM56.2944 133.967C56.7192 133.967 57.1221 133.857 57.5029 133.638C57.8838 133.418 58.1597 133.132 58.3306 132.781V131.155H57.2686C55.6084 131.155 54.7783 131.641 54.7783 132.612C54.7783 133.037 54.9199 133.369 55.2031 133.608C55.4863 133.848 55.8501 133.967 56.2944 133.967ZM61.9341 135V127.075H65.0249C66.0796 127.075 66.8877 127.261 67.4492 127.632C68.0156 127.998 68.2988 128.538 68.2988 129.25C68.2988 129.617 68.189 129.949 67.9692 130.247C67.7495 130.54 67.4248 130.764 66.9951 130.92C67.4736 131.033 67.8569 131.252 68.145 131.58C68.438 131.907 68.5845 132.297 68.5845 132.751C68.5845 133.479 68.3159 134.036 67.7788 134.421C67.2466 134.807 66.4922 135 65.5156 135H61.9341ZM63.2891 131.521V133.909H65.5303C66.0967 133.909 66.519 133.804 66.7974 133.594C67.0806 133.384 67.2222 133.088 67.2222 132.708C67.2222 131.917 66.6411 131.521 65.479 131.521H63.2891ZM63.2891 130.437H65.0396C66.3091 130.437 66.9438 130.066 66.9438 129.324C66.9438 128.582 66.3433 128.198 65.1421 128.174H63.2891V130.437ZM75.5059 127.075H76.8608V135H75.5059V129.221L71.8511 135H70.4961V127.075H71.8511V132.861L75.5059 127.075ZM84.9248 128.174H82.2661V135H80.9111V128.174H78.3037V127.075H84.9248V128.174ZM87.7227 129.807H89.7808C90.6792 129.817 91.3896 130.051 91.9121 130.51C92.4346 130.969 92.6958 131.592 92.6958 132.378C92.6958 133.169 92.4272 133.804 91.8901 134.282C91.353 134.761 90.6304 135 89.7222 135H86.3677V127.075H87.7227V129.807ZM87.7227 130.913V133.894H89.7368C90.2446 133.894 90.6377 133.765 90.916 133.506C91.1943 133.242 91.3335 132.883 91.3335 132.429C91.3335 131.99 91.1968 131.631 90.9233 131.353C90.6548 131.069 90.2764 130.923 89.7881 130.913H87.7227ZM101.287 134.041C101.771 134.041 102.193 133.894 102.554 133.601C102.916 133.308 103.116 132.942 103.155 132.502H104.437C104.412 132.957 104.256 133.389 103.968 133.799C103.68 134.209 103.294 134.536 102.811 134.78C102.332 135.024 101.824 135.146 101.287 135.146C100.208 135.146 99.3486 134.788 98.709 134.07C98.0742 133.347 97.7568 132.361 97.7568 131.111V130.884C97.7568 130.112 97.8984 129.426 98.1816 128.826C98.4648 128.225 98.8701 127.759 99.3975 127.427C99.9297 127.095 100.557 126.929 101.28 126.929C102.168 126.929 102.906 127.195 103.492 127.727C104.083 128.259 104.397 128.95 104.437 129.8H103.155C103.116 129.287 102.92 128.867 102.569 128.54C102.222 128.208 101.792 128.042 101.28 128.042C100.591 128.042 100.057 128.291 99.6758 128.789C99.2998 129.282 99.1118 129.998 99.1118 130.935V131.191C99.1118 132.104 99.2998 132.808 99.6758 133.301C100.052 133.794 100.589 134.041 101.287 134.041ZM106.077 127.075H107.439V133.894H111.087V127.075H112.442V133.894H113.387L113.255 137.351H112.039V135H106.077V127.075ZM118.14 135.146C117.066 135.146 116.192 134.795 115.518 134.092C114.844 133.384 114.507 132.439 114.507 131.257V131.008C114.507 130.222 114.656 129.521 114.954 128.906C115.257 128.286 115.677 127.803 116.214 127.456C116.756 127.104 117.342 126.929 117.972 126.929C119.002 126.929 119.803 127.268 120.374 127.947C120.945 128.625 121.231 129.597 121.231 130.862V131.426H115.862C115.882 132.207 116.109 132.839 116.543 133.323C116.983 133.801 117.54 134.041 118.213 134.041C118.692 134.041 119.097 133.943 119.429 133.748C119.761 133.552 120.052 133.293 120.301 132.971L121.128 133.616C120.464 134.636 119.468 135.146 118.14 135.146ZM117.972 128.042C117.425 128.042 116.966 128.242 116.595 128.643C116.224 129.038 115.994 129.595 115.906 130.312H119.876V130.21C119.837 129.521 119.651 128.989 119.319 128.613C118.987 128.232 118.538 128.042 117.972 128.042ZM129.28 135H127.925V131.616H124.285V135H122.923V127.075H124.285V130.51H127.925V127.075H129.28V135ZM136.355 135C136.277 134.844 136.214 134.565 136.165 134.165C135.535 134.819 134.783 135.146 133.909 135.146C133.128 135.146 132.486 134.927 131.983 134.487C131.485 134.043 131.236 133.481 131.236 132.803C131.236 131.978 131.548 131.338 132.173 130.884C132.803 130.425 133.687 130.195 134.825 130.195H136.143V129.573C136.143 129.099 136.001 128.723 135.718 128.445C135.435 128.162 135.018 128.02 134.466 128.02C133.982 128.02 133.577 128.142 133.25 128.386C132.923 128.63 132.759 128.926 132.759 129.272H131.397C131.397 128.877 131.536 128.496 131.814 128.13C132.098 127.759 132.479 127.466 132.957 127.251C133.44 127.036 133.97 126.929 134.546 126.929C135.459 126.929 136.175 127.158 136.692 127.617C137.21 128.071 137.479 128.699 137.498 129.5V133.147C137.498 133.875 137.591 134.453 137.776 134.883V135H136.355ZM134.107 133.967C134.532 133.967 134.935 133.857 135.315 133.638C135.696 133.418 135.972 133.132 136.143 132.781V131.155H135.081C133.421 131.155 132.591 131.641 132.591 132.612C132.591 133.037 132.732 133.369 133.016 133.608C133.299 133.848 133.663 133.967 134.107 133.967ZM146.316 131.125C146.316 132.332 146.041 133.303 145.489 134.041C144.937 134.778 144.19 135.146 143.248 135.146C142.286 135.146 141.529 134.841 140.977 134.231V138.047H139.622V127.075H140.86L140.926 127.954C141.478 127.271 142.244 126.929 143.226 126.929C144.178 126.929 144.93 127.288 145.481 128.005C146.038 128.723 146.316 129.722 146.316 131.001V131.125ZM144.961 130.972C144.961 130.078 144.771 129.373 144.39 128.855C144.009 128.337 143.487 128.079 142.823 128.079C142.002 128.079 141.387 128.442 140.977 129.17V132.957C141.382 133.679 142.002 134.041 142.837 134.041C143.487 134.041 144.002 133.784 144.383 133.271C144.769 132.754 144.961 131.987 144.961 130.972ZM153.172 127.075H154.527V135H153.172V129.221L149.517 135H148.162V127.075H149.517V132.861L153.172 127.075ZM161.829 127.075H163.184V135H161.829V129.221L158.174 135H156.819V127.075H158.174V132.861L161.829 127.075ZM162.195 124.189C162.195 124.78 161.993 125.256 161.587 125.618C161.187 125.974 160.66 126.152 160.005 126.152C159.351 126.152 158.821 125.972 158.416 125.61C158.011 125.249 157.808 124.775 157.808 124.189H158.914C158.914 124.531 159.007 124.8 159.192 124.995C159.378 125.186 159.649 125.281 160.005 125.281C160.347 125.281 160.613 125.186 160.804 124.995C160.999 124.805 161.097 124.536 161.097 124.189H162.195ZM175.774 131.125C175.774 132.332 175.499 133.303 174.947 134.041C174.395 134.778 173.648 135.146 172.706 135.146C171.744 135.146 170.987 134.841 170.435 134.231V138.047H169.08V127.075H170.318L170.384 127.954C170.936 127.271 171.702 126.929 172.684 126.929C173.636 126.929 174.388 127.288 174.939 128.005C175.496 128.723 175.774 129.722 175.774 131.001V131.125ZM174.419 130.972C174.419 130.078 174.229 129.373 173.848 128.855C173.467 128.337 172.945 128.079 172.281 128.079C171.46 128.079 170.845 128.442 170.435 129.17V132.957C170.84 133.679 171.46 134.041 172.295 134.041C172.945 134.041 173.46 133.784 173.841 133.271C174.227 132.754 174.419 131.987 174.419 130.972ZM182.396 135C182.317 134.844 182.254 134.565 182.205 134.165C181.575 134.819 180.823 135.146 179.949 135.146C179.168 135.146 178.526 134.927 178.023 134.487C177.525 134.043 177.276 133.481 177.276 132.803C177.276 131.978 177.588 131.338 178.213 130.884C178.843 130.425 179.727 130.195 180.865 130.195H182.183V129.573C182.183 129.099 182.042 128.723 181.758 128.445C181.475 128.162 181.058 128.02 180.506 128.02C180.022 128.02 179.617 128.142 179.29 128.386C178.963 128.63 178.799 128.926 178.799 129.272H177.437C177.437 128.877 177.576 128.496 177.854 128.13C178.138 127.759 178.519 127.466 178.997 127.251C179.48 127.036 180.01 126.929 180.586 126.929C181.5 126.929 182.215 127.158 182.732 127.617C183.25 128.071 183.519 128.699 183.538 129.5V133.147C183.538 133.875 183.631 134.453 183.816 134.883V135H182.396ZM180.147 133.967C180.572 133.967 180.975 133.857 181.355 133.638C181.736 133.418 182.012 133.132 182.183 132.781V131.155H181.121C179.461 131.155 178.631 131.641 178.631 132.612C178.631 133.037 178.772 133.369 179.056 133.608C179.339 133.848 179.703 133.967 180.147 133.967ZM188.841 134.041C189.324 134.041 189.747 133.894 190.108 133.601C190.469 133.308 190.669 132.942 190.708 132.502H191.99C191.966 132.957 191.81 133.389 191.521 133.799C191.233 134.209 190.848 134.536 190.364 134.78C189.886 135.024 189.378 135.146 188.841 135.146C187.762 135.146 186.902 134.788 186.263 134.07C185.628 133.347 185.311 132.361 185.311 131.111V130.884C185.311 130.112 185.452 129.426 185.735 128.826C186.019 128.225 186.424 127.759 186.951 127.427C187.483 127.095 188.111 126.929 188.833 126.929C189.722 126.929 190.459 127.195 191.045 127.727C191.636 128.259 191.951 128.95 191.99 129.8H190.708C190.669 129.287 190.474 128.867 190.123 128.54C189.776 128.208 189.346 128.042 188.833 128.042C188.145 128.042 187.61 128.291 187.229 128.789C186.854 129.282 186.666 129.998 186.666 130.935V131.191C186.666 132.104 186.854 132.808 187.229 133.301C187.605 133.794 188.143 134.041 188.841 134.041ZM199.498 135H198.135V132.129C197.54 132.285 196.929 132.363 196.304 132.363C195.313 132.363 194.556 132.109 194.034 131.602C193.516 131.094 193.252 130.371 193.243 129.434V127.068H194.598V129.478C194.622 130.659 195.191 131.25 196.304 131.25C196.929 131.25 197.54 131.172 198.135 131.016V127.075H199.498V135ZM204.961 135.146C203.887 135.146 203.013 134.795 202.339 134.092C201.666 133.384 201.329 132.439 201.329 131.257V131.008C201.329 130.222 201.478 129.521 201.775 128.906C202.078 128.286 202.498 127.803 203.035 127.456C203.577 127.104 204.163 126.929 204.793 126.929C205.823 126.929 206.624 127.268 207.195 127.947C207.767 128.625 208.052 129.597 208.052 130.862V131.426H202.684C202.703 132.207 202.93 132.839 203.365 133.323C203.804 133.801 204.361 134.041 205.035 134.041C205.513 134.041 205.918 133.943 206.25 133.748C206.583 133.552 206.873 133.293 207.122 132.971L207.95 133.616C207.286 134.636 206.29 135.146 204.961 135.146ZM204.793 128.042C204.246 128.042 203.787 128.242 203.416 128.643C203.045 129.038 202.815 129.595 202.728 130.312H206.697V130.21C206.658 129.521 206.473 128.989 206.141 128.613C205.809 128.232 205.359 128.042 204.793 128.042ZM215.428 128.174H212.769V135H211.414V128.174H208.807V127.075H215.428V128.174ZM221.521 135C221.443 134.844 221.38 134.565 221.331 134.165C220.701 134.819 219.949 135.146 219.075 135.146C218.294 135.146 217.652 134.927 217.149 134.487C216.651 134.043 216.402 133.481 216.402 132.803C216.402 131.978 216.714 131.338 217.339 130.884C217.969 130.425 218.853 130.195 219.991 130.195H221.309V129.573C221.309 129.099 221.167 128.723 220.884 128.445C220.601 128.162 220.184 128.02 219.632 128.02C219.148 128.02 218.743 128.142 218.416 128.386C218.089 128.63 217.925 128.926 217.925 129.272H216.563C216.563 128.877 216.702 128.496 216.98 128.13C217.264 127.759 217.645 127.466 218.123 127.251C218.606 127.036 219.136 126.929 219.712 126.929C220.625 126.929 221.341 127.158 221.858 127.617C222.376 128.071 222.645 128.699 222.664 129.5V133.147C222.664 133.875 222.757 134.453 222.942 134.883V135H221.521ZM219.273 133.967C219.698 133.967 220.101 133.857 220.481 133.638C220.862 133.418 221.138 133.132 221.309 132.781V131.155H220.247C218.587 131.155 217.757 131.641 217.757 132.612C217.757 133.037 217.898 133.369 218.182 133.608C218.465 133.848 218.829 133.967 219.273 133.967Z" fill="#0089FF"/>
<path d="M203 74C203 72.8954 203.895 72 205 72H367C368.105 72 369 72.8954 369 74V102C369 103.105 368.105 104 367 104H205C203.895 104 203 103.105 203 102V74Z" fill="#118F3F"/>
<path d="M224.2 81H220V95H234V90.8" stroke="#D7E2F2" stroke-miterlimit="10" stroke-linecap="round" stroke-linejoin="round"/>
<path d="M234 81V85.9" stroke="#D7E2F2" stroke-miterlimit="10" stroke-linecap="round" stroke-linejoin="round"/>
<path d="M229.1 81H234L228.75 86.25" stroke="#D7E2F2" stroke-miterlimit="10" stroke-linecap="round" stroke-linejoin="round"/>
<path d="M250.871 89.0674C250.757 90.0449 250.395 90.8003 249.786 91.3335C249.181 91.8625 248.374 92.127 247.367 92.127C246.275 92.127 245.399 91.7355 244.739 90.9526C244.083 90.1698 243.755 89.1224 243.755 87.8105V86.9219C243.755 86.0628 243.908 85.3075 244.212 84.6558C244.521 84.0041 244.957 83.5047 245.52 83.1577C246.083 82.8065 246.735 82.6309 247.475 82.6309C248.457 82.6309 249.244 82.9059 249.836 83.4561C250.429 84.002 250.774 84.7594 250.871 85.7285H249.646C249.54 84.9922 249.31 84.459 248.954 84.1289C248.603 83.7988 248.11 83.6338 247.475 83.6338C246.696 83.6338 246.085 83.9215 245.641 84.4971C245.201 85.0726 244.98 85.8914 244.98 86.9536V87.8486C244.98 88.8516 245.19 89.6493 245.609 90.2417C246.028 90.8341 246.614 91.1304 247.367 91.1304C248.044 91.1304 248.563 90.978 248.922 90.6733C249.286 90.3644 249.528 89.8291 249.646 89.0674H250.871ZM252.045 88.5024C252.045 87.8296 252.177 87.2244 252.439 86.687C252.706 86.1496 253.074 85.7349 253.543 85.4429C254.017 85.1509 254.557 85.0049 255.162 85.0049C256.097 85.0049 256.853 85.3286 257.428 85.9761C258.008 86.6235 258.298 87.4847 258.298 88.5596V88.6421C258.298 89.3107 258.169 89.9116 257.911 90.4448C257.657 90.9738 257.291 91.3864 256.812 91.6826C256.339 91.9788 255.793 92.127 255.175 92.127C254.244 92.127 253.488 91.8032 252.909 91.1558C252.333 90.5083 252.045 89.6514 252.045 88.585V88.5024ZM253.226 88.6421C253.226 89.4038 253.402 90.0153 253.753 90.4766C254.108 90.9378 254.582 91.1685 255.175 91.1685C255.771 91.1685 256.245 90.9357 256.597 90.4702C256.948 90.0005 257.124 89.3446 257.124 88.5024C257.124 87.7492 256.944 87.1398 256.584 86.6743C256.229 86.2046 255.755 85.9697 255.162 85.9697C254.582 85.9697 254.115 86.2004 253.759 86.6616C253.404 87.1229 253.226 87.783 253.226 88.6421ZM261.935 87.6392L263.458 85.1318H264.83L262.583 88.5278L264.899 92H263.541L261.954 89.4292L260.367 92H259.002L261.319 88.5278L259.072 85.1318H260.431L261.935 87.6392ZM271.882 88.6421C271.882 89.6873 271.643 90.5295 271.165 91.1685C270.686 91.8075 270.039 92.127 269.222 92.127C268.389 92.127 267.733 91.8625 267.254 91.3335V94.6406H266.08V85.1318H267.153L267.21 85.8936C267.688 85.3011 268.353 85.0049 269.203 85.0049C270.028 85.0049 270.68 85.3159 271.158 85.938C271.641 86.5601 271.882 87.4255 271.882 88.5342V88.6421ZM270.708 88.5088C270.708 87.7344 270.542 87.1229 270.212 86.6743C269.882 86.2257 269.43 86.0015 268.854 86.0015C268.143 86.0015 267.61 86.3167 267.254 86.9473V90.229C267.606 90.8553 268.143 91.1685 268.867 91.1685C269.43 91.1685 269.876 90.9463 270.206 90.502C270.54 90.0534 270.708 89.389 270.708 88.5088ZM277.62 92C277.552 91.8646 277.497 91.6234 277.455 91.2764C276.909 91.8434 276.257 92.127 275.5 92.127C274.823 92.127 274.266 91.9365 273.831 91.5557C273.399 91.1706 273.183 90.6839 273.183 90.0957C273.183 89.3805 273.454 88.8262 273.996 88.4326C274.542 88.0348 275.307 87.8359 276.293 87.8359H277.436V87.2964C277.436 86.8859 277.313 86.5601 277.068 86.3188C276.822 86.0734 276.461 85.9507 275.982 85.9507C275.563 85.9507 275.212 86.0565 274.929 86.2681C274.645 86.4797 274.503 86.7357 274.503 87.0361H273.323C273.323 86.6934 273.443 86.3633 273.685 86.0459C273.93 85.7243 274.26 85.4704 274.675 85.2842C275.094 85.098 275.553 85.0049 276.052 85.0049C276.844 85.0049 277.464 85.2038 277.912 85.6016C278.361 85.9951 278.593 86.5389 278.61 87.2329V90.394C278.61 91.0246 278.691 91.526 278.852 91.8984V92H277.62ZM275.671 91.105C276.04 91.105 276.389 91.0098 276.719 90.8193C277.049 90.6289 277.288 90.3813 277.436 90.0767V88.6675H276.516C275.077 88.6675 274.357 89.0885 274.357 89.9307C274.357 90.2988 274.48 90.5866 274.726 90.7939C274.971 91.0013 275.286 91.105 275.671 91.105ZM286.062 92H284.888V89.0674H281.733V92H280.553V85.1318H281.733V88.1089H284.888V85.1318H286.062V92ZM292.397 85.1318H293.572V92H292.397V86.9917L289.23 92H288.056V85.1318H289.23V90.1465L292.397 85.1318ZM300.561 86.084H298.256V92H297.082V86.084H294.822V85.1318H300.561V86.084ZM302.985 87.4995H304.769C305.548 87.508 306.163 87.7111 306.616 88.1089C307.069 88.5067 307.295 89.0462 307.295 89.7275C307.295 90.4131 307.063 90.9632 306.597 91.3779C306.132 91.7926 305.505 92 304.718 92H301.811V85.1318H302.985V87.4995ZM302.985 88.458V91.0415H304.731C305.171 91.0415 305.512 90.9294 305.753 90.7051C305.994 90.4766 306.115 90.1655 306.115 89.772C306.115 89.3911 305.996 89.0801 305.759 88.8389C305.527 88.5934 305.199 88.4665 304.775 88.458H302.985ZM317.788 88.6421C317.788 89.6873 317.549 90.5295 317.071 91.1685C316.593 91.8075 315.945 92.127 315.128 92.127C314.295 92.127 313.639 91.8625 313.161 91.3335V94.6406H311.986V85.1318H313.059L313.116 85.8936C313.594 85.3011 314.259 85.0049 315.109 85.0049C315.935 85.0049 316.586 85.3159 317.064 85.938C317.547 86.5601 317.788 87.4255 317.788 88.5342V88.6421ZM316.614 88.5088C316.614 87.7344 316.449 87.1229 316.119 86.6743C315.789 86.2257 315.336 86.0015 314.76 86.0015C314.049 86.0015 313.516 86.3167 313.161 86.9473V90.229C313.512 90.8553 314.049 91.1685 314.773 91.1685C315.336 91.1685 315.782 90.9463 316.112 90.502C316.447 90.0534 316.614 89.389 316.614 88.5088ZM323.526 92C323.459 91.8646 323.404 91.6234 323.361 91.2764C322.815 91.8434 322.164 92.127 321.406 92.127C320.729 92.127 320.173 91.9365 319.737 91.5557C319.305 91.1706 319.089 90.6839 319.089 90.0957C319.089 89.3805 319.36 88.8262 319.902 88.4326C320.448 88.0348 321.214 87.8359 322.2 87.8359H323.342V87.2964C323.342 86.8859 323.22 86.5601 322.974 86.3188C322.729 86.0734 322.367 85.9507 321.889 85.9507C321.47 85.9507 321.118 86.0565 320.835 86.2681C320.551 86.4797 320.41 86.7357 320.41 87.0361H319.229C319.229 86.6934 319.35 86.3633 319.591 86.0459C319.836 85.7243 320.166 85.4704 320.581 85.2842C321 85.098 321.459 85.0049 321.958 85.0049C322.75 85.0049 323.37 85.2038 323.818 85.6016C324.267 85.9951 324.5 86.5389 324.517 87.2329V90.394C324.517 91.0246 324.597 91.526 324.758 91.8984V92H323.526ZM321.578 91.105C321.946 91.105 322.295 91.0098 322.625 90.8193C322.955 90.6289 323.194 90.3813 323.342 90.0767V88.6675H322.422C320.983 88.6675 320.264 89.0885 320.264 89.9307C320.264 90.2988 320.386 90.5866 320.632 90.7939C320.877 91.0013 321.193 91.105 321.578 91.105ZM329.112 91.1685C329.531 91.1685 329.897 91.0415 330.21 90.7876C330.524 90.5337 330.697 90.2163 330.731 89.8354H331.842C331.821 90.229 331.685 90.6035 331.436 90.959C331.186 91.3145 330.852 91.598 330.433 91.8096C330.018 92.0212 329.578 92.127 329.112 92.127C328.177 92.127 327.432 91.8159 326.878 91.1938C326.328 90.5675 326.053 89.7127 326.053 88.6294V88.4326C326.053 87.764 326.175 87.1694 326.421 86.6489C326.666 86.1284 327.018 85.7243 327.475 85.4365C327.936 85.1488 328.48 85.0049 329.106 85.0049C329.876 85.0049 330.515 85.2355 331.023 85.6968C331.535 86.158 331.808 86.7568 331.842 87.4932H330.731C330.697 87.0488 330.528 86.6849 330.223 86.4014C329.923 86.1136 329.55 85.9697 329.106 85.9697C328.509 85.9697 328.046 86.1855 327.716 86.6172C327.39 87.0446 327.227 87.6646 327.227 88.4771V88.6992C327.227 89.4906 327.39 90.0999 327.716 90.5273C328.042 90.9548 328.507 91.1685 329.112 91.1685ZM338.348 92H337.167V89.5117C336.651 89.6471 336.122 89.7148 335.581 89.7148C334.722 89.7148 334.066 89.4948 333.613 89.0547C333.164 88.6146 332.936 87.9883 332.927 87.1758V85.1255H334.102V87.2139C334.123 88.238 334.616 88.75 335.581 88.75C336.122 88.75 336.651 88.6823 337.167 88.5469V85.1318H338.348V92ZM343.083 92.127C342.153 92.127 341.395 91.8223 340.811 91.2129C340.227 90.5993 339.935 89.7804 339.935 88.7563V88.5405C339.935 87.8592 340.064 87.252 340.322 86.7188C340.585 86.1813 340.949 85.7624 341.414 85.4619C341.884 85.1572 342.392 85.0049 342.938 85.0049C343.83 85.0049 344.524 85.299 345.02 85.8872C345.515 86.4754 345.762 87.3175 345.762 88.4136V88.9023H341.109C341.126 89.5794 341.323 90.1274 341.7 90.5464C342.081 90.9611 342.563 91.1685 343.147 91.1685C343.562 91.1685 343.913 91.0838 344.201 90.9146C344.488 90.7453 344.74 90.521 344.956 90.2417L345.673 90.8003C345.098 91.6847 344.235 92.127 343.083 92.127ZM342.938 85.9697C342.464 85.9697 342.066 86.1432 341.744 86.4902C341.423 86.833 341.224 87.3154 341.147 87.9375H344.588V87.8486C344.554 87.252 344.393 86.7907 344.105 86.4648C343.818 86.1348 343.428 85.9697 342.938 85.9697ZM352.154 86.084H349.85V92H348.676V86.084H346.416V85.1318H352.154V86.084Z" fill="white"/>
<path d="M2.93896 8.93848V12H1.90771V4.17969H4.79199C5.64779 4.17969 6.31738 4.39811 6.80078 4.83496C7.28776 5.27181 7.53125 5.8501 7.53125 6.56982C7.53125 7.32894 7.29313 7.91439 6.81689 8.32617C6.34424 8.73438 5.66569 8.93848 4.78125 8.93848H2.93896ZM2.93896 8.09521H4.79199C5.34342 8.09521 5.76595 7.96631 6.05957 7.7085C6.35319 7.4471 6.5 7.07113 6.5 6.58057C6.5 6.11507 6.35319 5.74268 6.05957 5.46338C5.76595 5.18408 5.36312 5.03906 4.85107 5.02832H2.93896V8.09521ZM12.2148 12C12.1576 11.8854 12.111 11.6813 12.0752 11.3877C11.6133 11.8675 11.0618 12.1074 10.4209 12.1074C9.84798 12.1074 9.37712 11.9463 9.0083 11.624C8.64307 11.2982 8.46045 10.8864 8.46045 10.3887C8.46045 9.78353 8.68962 9.31445 9.14795 8.98145C9.60986 8.64486 10.258 8.47656 11.0923 8.47656H12.0591V8.02002C12.0591 7.67269 11.9552 7.39697 11.7476 7.19287C11.5399 6.98519 11.2337 6.88135 10.8291 6.88135C10.4746 6.88135 10.1774 6.97087 9.9375 7.1499C9.69759 7.32894 9.57764 7.54557 9.57764 7.7998H8.57861C8.57861 7.50977 8.68066 7.23047 8.88477 6.96191C9.09245 6.68978 9.37174 6.47493 9.72266 6.31738C10.0771 6.15983 10.4657 6.08105 10.8882 6.08105C11.5578 6.08105 12.0824 6.24935 12.4619 6.58594C12.8415 6.91895 13.0384 7.37907 13.0527 7.96631V10.6411C13.0527 11.1746 13.1208 11.599 13.2568 11.9141V12H12.2148ZM10.5659 11.2427C10.8774 11.2427 11.1729 11.1621 11.4521 11.001C11.7314 10.8398 11.9338 10.6304 12.0591 10.3726V9.18018H11.2803C10.0628 9.18018 9.4541 9.53646 9.4541 10.249C9.4541 10.5605 9.55794 10.804 9.76562 10.9795C9.97331 11.1549 10.2401 11.2427 10.5659 11.2427ZM16.9414 11.2964C17.2959 11.2964 17.6056 11.189 17.8706 10.9741C18.1356 10.7593 18.2824 10.4907 18.311 10.1685H19.251C19.2331 10.5015 19.1185 10.8184 18.9072 11.1191C18.696 11.4199 18.4131 11.6598 18.0586 11.8389C17.7077 12.0179 17.3353 12.1074 16.9414 12.1074C16.1501 12.1074 15.5199 11.8442 15.0508 11.3179C14.5853 10.7879 14.3525 10.0646 14.3525 9.14795V8.98145C14.3525 8.41569 14.4564 7.9126 14.6641 7.47217C14.8717 7.03174 15.1689 6.68978 15.5557 6.44629C15.946 6.2028 16.4061 6.08105 16.936 6.08105C17.5877 6.08105 18.1284 6.2762 18.5581 6.6665C18.9914 7.0568 19.2223 7.56348 19.251 8.18652H18.311C18.2824 7.81055 18.1392 7.5026 17.8813 7.2627C17.6271 7.01921 17.312 6.89746 16.936 6.89746C16.4312 6.89746 16.0391 7.08008 15.7598 7.44531C15.484 7.80697 15.3462 8.33154 15.3462 9.01904V9.20703C15.3462 9.87663 15.484 10.3923 15.7598 10.7539C16.0355 11.1156 16.4294 11.2964 16.9414 11.2964ZM24.7563 12H23.7573V9.89453C23.3205 10.0091 22.8729 10.0664 22.4146 10.0664C21.6877 10.0664 21.1326 9.88021 20.7495 9.50781C20.37 9.13542 20.1766 8.60547 20.1694 7.91797V6.18311H21.1631V7.9502C21.181 8.81673 21.5981 9.25 22.4146 9.25C22.8729 9.25 23.3205 9.19271 23.7573 9.07812V6.18848H24.7563V12ZM28.7632 12.1074C27.9754 12.1074 27.3345 11.8496 26.8403 11.334C26.3462 10.8148 26.0991 10.1219 26.0991 9.25537V9.07275C26.0991 8.49626 26.2083 7.98242 26.4268 7.53125C26.6488 7.0765 26.9567 6.72201 27.3506 6.46777C27.748 6.20996 28.1777 6.08105 28.6396 6.08105C29.3952 6.08105 29.9824 6.32992 30.4014 6.82764C30.8203 7.32536 31.0298 8.03792 31.0298 8.96533V9.37891H27.0928C27.1071 9.95182 27.2736 10.4155 27.5923 10.77C27.9146 11.1209 28.3228 11.2964 28.8169 11.2964C29.1678 11.2964 29.465 11.2248 29.7085 11.0815C29.952 10.9383 30.165 10.7485 30.3477 10.5122L30.9546 10.9849C30.4676 11.7332 29.7371 12.1074 28.7632 12.1074ZM28.6396 6.89746C28.2386 6.89746 27.902 7.04427 27.6299 7.33789C27.3577 7.62793 27.1895 8.03613 27.125 8.5625H30.0361V8.4873C30.0075 7.98242 29.8714 7.59212 29.6279 7.31641C29.3844 7.03711 29.055 6.89746 28.6396 6.89746ZM36.4385 6.99414H34.4888V12H33.4951V6.99414H31.583V6.18848H36.4385V6.99414Z" fill="#8C99B2"/>
<path d="M1 26C1 24.8954 1.89543 24 3 24H367C368.105 24 369 24.8954 369 26V54C369 55.1046 368.105 56 367 56H3.00001C1.89544 56 1 55.1046 1 54V26Z" fill="#12151E"/>
<path d="M3 25H367V23H3V25ZM368 26V54H370V26H368ZM367 55H3.00001V57H367V55ZM2 54V26H0V54H2ZM3.00001 55C2.44772 55 2 54.5523 2 54H0C0 55.6569 1.34316 57 3.00001 57V55ZM368 54C368 54.5523 367.552 55 367 55V57C368.657 57 370 55.6569 370 54H368ZM367 25C367.552 25 368 25.4477 368 26H370C370 24.3431 368.657 23 367 23V25ZM3 23C1.34315 23 0 24.3431 0 26H2C2 25.4477 2.44772 25 3 25V23Z" fill="#4B5169"/>
<path d="M16.4585 35.7607H13.4878V44H12.2754V35.7607H9.31104V34.7578H16.4585V35.7607ZM21.3906 37.1318H22.5649V44H21.3906V38.9917L18.2231 44H17.0488V37.1318H18.2231V42.1465L21.3906 37.1318ZM30.0679 44H28.8936V38.103H25.7324V44H24.5518V37.1318H30.0679V44ZM39.1323 42.4448L41.4683 37.1318H42.9346V44H41.7603V39.0044L39.5386 44H38.7261L36.46 38.8965V44H35.2856V37.1318H36.8091L39.1323 42.4448ZM44.5151 40.5024C44.5151 39.8296 44.6463 39.2244 44.9087 38.687C45.1753 38.1496 45.5435 37.7349 46.0132 37.4429C46.4871 37.1509 47.0267 37.0049 47.6318 37.0049C48.5671 37.0049 49.3224 37.3286 49.8979 37.9761C50.4777 38.6235 50.7676 39.4847 50.7676 40.5596V40.6421C50.7676 41.3107 50.6385 41.9116 50.3804 42.4448C50.1265 42.9738 49.7604 43.3864 49.2822 43.6826C48.8083 43.9788 48.2624 44.127 47.6445 44.127C46.7135 44.127 45.9582 43.8032 45.3784 43.1558C44.8029 42.5083 44.5151 41.6514 44.5151 40.585V40.5024ZM45.6958 40.6421C45.6958 41.4038 45.8714 42.0153 46.2227 42.4766C46.5781 42.9378 47.0521 43.1685 47.6445 43.1685C48.2412 43.1685 48.7152 42.9357 49.0664 42.4702C49.4176 42.0005 49.5933 41.3446 49.5933 40.5024C49.5933 39.7492 49.4134 39.1398 49.0537 38.6743C48.6982 38.2046 48.2243 37.9697 47.6318 37.9697C47.0521 37.9697 46.5845 38.2004 46.229 38.6616C45.8735 39.1229 45.6958 39.783 45.6958 40.6421ZM51.7261 43.0415L52.1323 42.54C52.5894 41.9476 52.8496 41.0589 52.9131 39.874L53.021 37.1318H57.4453V43.0415H58.3276V46.0186H57.1533V44H52.3608V46.0186H51.1865L51.1929 43.0415H51.7261ZM53.1162 43.0415H56.271V38.2173H54.1572L54.0874 39.855C54.0155 41.2218 53.6917 42.284 53.1162 43.0415ZM62.479 44.127C61.548 44.127 60.7905 43.8223 60.2065 43.2129C59.6226 42.5993 59.3306 41.7804 59.3306 40.7563V40.5405C59.3306 39.8592 59.4596 39.252 59.7178 38.7188C59.9801 38.1813 60.3441 37.7624 60.8096 37.4619C61.2793 37.1572 61.7871 37.0049 62.333 37.0049C63.2259 37.0049 63.9199 37.299 64.415 37.8872C64.9102 38.4754 65.1577 39.3175 65.1577 40.4136V40.9023H60.5049C60.5218 41.5794 60.7186 42.1274 61.0952 42.5464C61.4761 42.9611 61.9585 43.1685 62.5425 43.1685C62.9572 43.1685 63.3084 43.0838 63.5962 42.9146C63.884 42.7453 64.1357 42.521 64.3516 42.2417L65.0688 42.8003C64.4933 43.6847 63.63 44.127 62.479 44.127ZM62.333 37.9697C61.859 37.9697 61.4613 38.1432 61.1396 38.4902C60.818 38.833 60.6191 39.3154 60.543 39.9375H63.9834V39.8486C63.9495 39.252 63.7887 38.7907 63.501 38.4648C63.2132 38.1348 62.8239 37.9697 62.333 37.9697ZM72.1528 37.1318V44H70.9722V38.103H68.6362L68.4966 40.6738C68.4204 41.8545 68.2215 42.6987 67.8999 43.2065C67.5825 43.7144 67.0768 43.9788 66.3828 44H65.9131V42.9653L66.2495 42.9399C66.6304 42.8976 66.9033 42.6776 67.0684 42.2798C67.2334 41.882 67.3392 41.1457 67.3857 40.0708L67.5127 37.1318H72.1528ZM78.4814 37.1318H79.6558V44H78.4814V38.9917L75.314 44H74.1396V37.1318H75.314V42.1465L78.4814 37.1318Z" fill="#D7E2F2"/>
<path d="M359 37L353 43L347 37" stroke="#8C99B2" stroke-miterlimit="10" stroke-linecap="round" stroke-linejoin="round"/>
</svg>
