<svg width="16" height="16" viewBox="0 0 16 16" fill="none" xmlns="http://www.w3.org/2000/svg">
<path d="M8.00002 14.6C11.6451 14.6 14.6 11.6451 14.6 7.99999C14.6 4.35491 11.6451 1.39999 8.00002 1.39999C4.35494 1.39999 1.40002 4.35491 1.40002 7.99999C1.40002 11.6451 4.35494 14.6 8.00002 14.6Z" stroke="#FF1D25" stroke-miterlimit="10" stroke-linecap="round" stroke-linejoin="round"/>
<path d="M8.48633 9.5918H7.50781L7.43164 3.46875H8.56836L8.48633 9.5918ZM7.39062 11.4551C7.39062 11.2793 7.44336 11.1328 7.54883 11.0156C7.6582 10.8945 7.81836 10.834 8.0293 10.834C8.24023 10.834 8.40039 10.8945 8.50977 11.0156C8.61914 11.1328 8.67383 11.2793 8.67383 11.4551C8.67383 11.6309 8.61914 11.7773 8.50977 11.8945C8.40039 12.0078 8.24023 12.0645 8.0293 12.0645C7.81836 12.0645 7.6582 12.0078 7.54883 11.8945C7.44336 11.7773 7.39062 11.6309 7.39062 11.4551Z" fill="#FF1D25"/>
</svg>
