<svg width="16" height="16" viewBox="0 0 16 16" fill="none" xmlns="http://www.w3.org/2000/svg">
<path d="M3.0502 1V8.6" stroke="#606580" stroke-width="1.2" stroke-miterlimit="10" stroke-linecap="round" stroke-linejoin="round"/>
<path d="M3.0502 12.1001V15.0001" stroke="#606580" stroke-width="1.2" stroke-miterlimit="10" stroke-linecap="round" stroke-linejoin="round"/>
<path d="M3.0501 11.8C3.8233 11.8 4.4501 11.1732 4.4501 10.4C4.4501 9.6268 3.8233 9 3.0501 9C2.2769 9 1.6501 9.6268 1.6501 10.4C1.6501 11.1732 2.2769 11.8 3.0501 11.8Z" stroke="#606580" stroke-width="1.2" stroke-miterlimit="10" stroke-linecap="round" stroke-linejoin="round"/>
<path d="M8 1V3.9" stroke="#606580" stroke-width="1.2" stroke-miterlimit="10" stroke-linecap="round" stroke-linejoin="round"/>
<path d="M8 7.3999V14.9999" stroke="#606580" stroke-width="1.2" stroke-miterlimit="10" stroke-linecap="round" stroke-linejoin="round"/>
<path d="M7.9999 7.1501C8.7731 7.1501 9.3999 6.5233 9.3999 5.7501C9.3999 4.9769 8.7731 4.3501 7.9999 4.3501C7.2267 4.3501 6.5999 4.9769 6.5999 5.7501C6.5999 6.5233 7.2267 7.1501 7.9999 7.1501Z" stroke="#606580" stroke-width="1.2" stroke-miterlimit="10" stroke-linecap="round" stroke-linejoin="round"/>
<path d="M12.9503 1V6.25" stroke="#606580" stroke-width="1.2" stroke-miterlimit="10" stroke-linecap="round" stroke-linejoin="round"/>
<path d="M12.9503 9.75V15" stroke="#606580" stroke-width="1.2" stroke-miterlimit="10" stroke-linecap="round" stroke-linejoin="round"/>
<path d="M12.9502 9.49995C13.7234 9.49995 14.3502 8.87315 14.3502 8.09995C14.3502 7.32675 13.7234 6.69995 12.9502 6.69995C12.177 6.69995 11.5502 7.32675 11.5502 8.09995C11.5502 8.87315 12.177 9.49995 12.9502 9.49995Z" stroke="#606580" stroke-width="1.2" stroke-miterlimit="10" stroke-linecap="round" stroke-linejoin="round"/>
</svg>
