<svg width="16" height="16" viewBox="0 0 16 16" fill="none" xmlns="http://www.w3.org/2000/svg">
<path d="M10.2 4.7C11.2217 4.7 12.05 3.87173 12.05 2.85C12.05 1.82827 11.2217 1 10.2 1C9.17825 1 8.34998 1.82827 8.34998 2.85C8.34998 3.87173 9.17825 4.7 10.2 4.7Z" stroke="#606580" stroke-miterlimit="10" stroke-linecap="round" stroke-linejoin="round"/>
<path d="M12.05 2.84998H15" stroke="#606580" stroke-miterlimit="10" stroke-linecap="round" stroke-linejoin="round"/>
<path d="M1 2.84998H7.65" stroke="#606580" stroke-miterlimit="10" stroke-linecap="round" stroke-linejoin="round"/>
<path d="M5.79995 9.85002C6.82168 9.85002 7.64995 9.02175 7.64995 8.00002C7.64995 6.9783 6.82168 6.15002 5.79995 6.15002C4.77822 6.15002 3.94995 6.9783 3.94995 8.00002C3.94995 9.02175 4.77822 9.85002 5.79995 9.85002Z" stroke="#606580" stroke-miterlimit="10" stroke-linecap="round" stroke-linejoin="round"/>
<path d="M3.95 8H1" stroke="#606580" stroke-miterlimit="10" stroke-linecap="round" stroke-linejoin="round"/>
<path d="M15 8H8.34998" stroke="#606580" stroke-miterlimit="10" stroke-linecap="round" stroke-linejoin="round"/>
<path d="M10.2 15C11.2217 15 12.05 14.1718 12.05 13.15C12.05 12.1283 11.2217 11.3 10.2 11.3C9.17825 11.3 8.34998 12.1283 8.34998 13.15C8.34998 14.1718 9.17825 15 10.2 15Z" stroke="#606580" stroke-miterlimit="10" stroke-linecap="round" stroke-linejoin="round"/>
<path d="M12.05 13.15H15" stroke="#606580" stroke-miterlimit="10" stroke-linecap="round" stroke-linejoin="round"/>
<path d="M1 13.15H7.65" stroke="#606580" stroke-miterlimit="10" stroke-linecap="round" stroke-linejoin="round"/>
</svg>
