<svg width="317" height="60" viewBox="0 0 317 60" fill="none" xmlns="http://www.w3.org/2000/svg">
<rect width="125" height="60" fill="#272A38"/>
<path d="M77.3098 28.8626C77.2422 28.8653 77.1748 28.8547 77.1114 28.8312C77.0479 28.8078 76.9897 28.772 76.94 28.7259C76.8903 28.6798 76.8502 28.6243 76.8219 28.5625C76.7935 28.5008 76.7776 28.4341 76.7749 28.3662V19.8859C76.8069 19.7735 76.8743 19.6746 76.9671 19.6043C77.0599 19.5339 77.173 19.4958 77.2892 19.4958C77.4055 19.4958 77.5185 19.5339 77.6113 19.6043C77.7041 19.6746 77.7716 19.7735 77.8035 19.8859V28.3972C77.7982 28.5325 77.7402 28.6603 77.6421 28.7532C77.544 28.846 77.4136 28.8964 77.2789 28.8936L77.3098 28.8626ZM78.3075 17.8899H76.3121C74.6252 17.8899 74.5327 19.255 74.5327 20.1341V28.2007C74.5327 29.0798 74.6252 30.4449 76.3121 30.4449H78.2972C79.9738 30.4449 80.0767 29.0798 80.0767 28.2007V20.1341C80.0767 19.255 79.9738 17.8899 78.2972 17.8899" fill="white"/>
<path d="M40.8881 17.8899H45.4653V19.4515H43.2847V30.4449H40.8881V17.8899Z" fill="white"/>
<path d="M45.815 30.4449H48.1602L48.3864 27.1045H49.5282L49.7442 30.4449H52.151L50.8447 17.8899H47.0699L45.815 30.4449ZM48.479 25.76L48.8904 19.4722H49.0653L49.4767 25.76H48.479Z" fill="white"/>
<path d="M55.5354 26.0496V28.4179C55.5312 28.4698 55.5375 28.5221 55.5541 28.5714C55.5707 28.6208 55.5971 28.6663 55.6318 28.705C55.6665 28.7437 55.7087 28.7749 55.7557 28.7967C55.8028 28.8185 55.8539 28.8303 55.9057 28.8316C56.0103 28.8262 56.1086 28.7799 56.1797 28.7026C56.2508 28.6253 56.2891 28.5231 56.2862 28.4179V25.4911C56.2862 25.0982 56.2142 24.6741 55.3194 24.6741H54.3525V23.2883H55.3811C56.06 23.2883 56.3068 23.1229 56.3068 22.3576V19.8548C56.3082 19.8032 56.2994 19.7518 56.281 19.7036C56.2626 19.6554 56.235 19.6113 56.1996 19.5739C56.1643 19.5364 56.122 19.5063 56.0751 19.4853C56.0281 19.4643 55.9776 19.4528 55.9262 19.4515C55.8749 19.4513 55.8241 19.4619 55.777 19.4825C55.73 19.5031 55.6877 19.5334 55.6529 19.5713C55.618 19.6092 55.5914 19.654 55.5748 19.7028C55.5581 19.7516 55.5517 19.8034 55.556 19.8548V21.9232H53.18V20.1341C53.18 19.255 53.2828 17.8899 54.9594 17.8899H56.9548C58.6314 17.8899 58.7342 19.255 58.7342 20.1341V22.1404C58.7646 22.3654 58.744 22.5944 58.6742 22.8103C58.6043 23.0262 58.4869 23.2235 58.3308 23.3875C58.1746 23.5515 57.9836 23.6779 57.7721 23.7574C57.5606 23.837 57.334 23.8675 57.1091 23.8468V23.9709C57.3358 23.9416 57.5662 23.9663 57.7817 24.0429C57.9972 24.1195 58.1918 24.2458 58.3499 24.4118C58.5079 24.5778 58.6251 24.7788 58.6918 24.9986C58.7586 25.2184 58.7731 25.4508 58.7342 25.6773V28.2007C58.7342 29.0798 58.6314 30.4449 56.9548 30.4449H54.908C53.2314 30.4449 53.1285 29.0798 53.1285 28.2007V26.0496H55.5354Z" fill="white"/>
<path d="M60.2662 17.8899H65.8205V30.4449H63.5782V19.4515H62.4982V30.4449H60.2662V17.8899Z" fill="white"/>
<path d="M67.5797 30.4449H69.9763V26.1737H71.3443C73.0312 26.1737 73.2986 24.8189 73.2986 23.9295V20.1341C73.2986 19.255 73.0312 17.8899 71.3443 17.8899H67.5797V30.4449ZM69.9763 24.7982V19.4515H70.6037C70.8712 19.4515 71.0563 19.679 71.0563 20.072V24.2088C71.0563 24.6017 70.8712 24.8396 70.6037 24.8396L69.9763 24.7982Z" fill="white"/>
<path d="M87.74 17.8899H90.8669V30.4449H88.46V22.5747H88.3778L87.1435 30.4449H85.22L83.9858 22.5747H83.9035V30.4449H81.4966V17.8899H84.6132L86.1766 26.7115L87.74 17.8899Z" fill="white"/>
<path d="M35.7657 19.162C35.7497 20.3122 35.6258 21.4584 35.3954 22.5851C35.4421 20.9545 35.3041 19.3238 34.984 17.7245C34.5694 15.8995 33.9193 14.1368 33.0502 12.4812C32.1893 14.1335 31.5495 15.8931 31.1474 17.7141C30.8325 19.3424 30.6843 20.9989 30.7051 22.6575C30.4433 21.0862 30.3365 19.4927 30.3862 17.9003C30.4706 16.4397 30.7014 14.9914 31.0754 13.5774C31.5545 11.9157 32.2169 10.3131 33.0502 8.79948C33.9004 10.2711 34.5704 11.8406 35.0457 13.474C35.5472 15.3272 35.7895 17.2416 35.7657 19.162ZM33.0605 28.9143C32.4039 27.634 32.0518 26.218 32.032 24.7776C32.0345 23.3515 32.3878 21.9481 33.0605 20.6926C33.6663 21.9083 33.9999 23.2426 34.0377 24.6018C34.0639 26.1004 33.7099 27.5811 33.0091 28.904L33.0605 28.9143ZM35.9302 13.4947C35.3377 11.1761 34.3493 8.97861 33.0091 7C31.8537 8.75795 30.9467 10.6688 30.3142 12.6777C29.5428 15.3308 29.3119 18.1131 29.6354 20.8581C29.8837 22.6551 30.3465 24.4156 31.0137 26.1014C31.5587 27.3867 32.249 28.6047 33.0708 29.7313C34.8248 27.1954 35.9595 24.2794 36.3828 21.22C36.775 18.6438 36.635 16.014 35.9714 13.4947" fill="white"/>
<path d="M28.4118 30.4448V34.3954C29.0712 33.7342 29.9645 33.3629 30.8958 33.3629C31.8271 33.3629 32.7204 33.7342 33.3798 34.3954C33.7073 34.7206 33.9673 35.1078 34.1447 35.5348C34.3222 35.9618 34.4136 36.4199 34.4136 36.8826C34.4136 37.3454 34.3222 37.8035 34.1447 38.2305C33.9673 38.6574 33.7073 39.0447 33.3798 39.3698C32.0614 40.6891 30.277 41.4297 28.4169 41.4297C26.5569 41.4297 24.7725 40.6891 23.4541 39.3698C22.3037 38.2198 21.5881 36.7025 21.4304 35.0792C21.2727 33.4558 21.6828 31.828 22.5901 30.4759C22.8409 30.1014 23.1305 29.7547 23.4541 29.4417C24.1055 28.7844 24.8799 28.2633 25.7325 27.9083C26.5851 27.5533 27.4992 27.3715 28.4221 27.3733V17.9519C26.358 17.9576 24.3276 18.4789 22.5136 19.469C20.6995 20.4591 19.1586 21.8869 18.0293 23.6242C16.9001 25.3614 16.218 27.3536 16.0442 29.4216C15.8705 31.4896 16.2106 33.5686 17.034 35.4717C17.8573 37.3748 19.1382 39.0423 20.7614 40.3244C22.3845 41.6064 24.2991 42.4628 26.333 42.8165C28.367 43.1702 30.4564 43.0102 32.4136 42.3508C34.3707 41.6914 36.1342 40.5534 37.5455 39.0389V30.4448H28.4118Z" fill="white"/>
<path d="M88.6241 40.0318C88.6241 41.2211 88.079 41.4383 86.7007 41.4383H85.4356V35.9882H86.7007V38.0565H86.9167C88.1613 38.0565 88.6241 38.3564 88.6241 39.4423V40.0318ZM78.0504 37.012H77.0938V41.4383H75.8801V37.012H74.8516V35.9778H78.0504V37.012ZM68.2996 39.494C68.2996 40.6006 67.7441 40.9005 66.4893 40.9005V41.4383H65.2653V40.9005C64.0104 40.9005 63.4447 40.6006 63.4447 39.494V37.7876C63.4447 36.6811 63.9898 36.3915 65.2653 36.3915V35.9882H66.4893V36.3915C67.7647 36.3915 68.2996 36.6811 68.2996 37.7876V39.494ZM56.8207 37.012H55.0824V38.0462H56.6356V39.0804H55.0824V40.3628H56.8207V41.3969H53.735V35.9778H56.8207V37.012ZM46.3087 41.4383H45.0436V39.0494H44.3956V41.4383H43.1201V35.9882H44.3956V38.0565H45.0436V35.9882H46.3087V41.4383ZM90.8664 34.623H40.8881V42.9999H90.8664V34.623ZM64.679 37.7256V39.4734C64.679 39.794 64.7818 39.8664 65.0596 39.8664H65.2653V37.3533H65.0596C64.7818 37.3533 64.679 37.436 64.679 37.7566V37.7256ZM86.9887 39.0494H86.7007V40.4765H86.9887C87.2664 40.4765 87.3487 40.4041 87.3487 40.0939V39.432C87.3487 39.1217 87.2664 39.0494 86.9887 39.0494ZM66.6847 37.3533H66.4893V39.8974H66.6847C66.9727 39.8974 67.0756 39.8146 67.0756 39.494V37.7463C67.0756 37.4257 66.9727 37.3533 66.6847 37.3533Z" fill="white"/>
<path d="M110 30C110 26.15 113.15 23 117 23C120.85 23 124 26.15 124 30C124 33.85 120.85 37 117 37C113.15 37 110 33.85 110 30Z" stroke="#4B5169" stroke-miterlimit="10" stroke-linecap="round" stroke-linejoin="round"/>
<path d="M116.2 27.55L118.65 30L116.2 32.45" stroke="#4B5169" stroke-miterlimit="10" stroke-linecap="round" stroke-linejoin="round"/>
<path fill-rule="evenodd" clip-rule="evenodd" d="M116.5 23L116.5 -4.37114e-08L117.5 0L117.5 23L116.5 23Z" fill="#4B5169"/>
<path fill-rule="evenodd" clip-rule="evenodd" d="M116.5 60L116.5 37L117.5 37L117.5 60L116.5 60Z" fill="#4B5169"/>
<rect x="125" width="192" height="60" fill="#272A38"/>
<path d="M155.187 33.5716C154.754 33.591 154.321 33.5188 153.918 33.3597C153.515 33.2006 153.149 32.9582 152.846 32.6482C152.543 32.3383 152.308 31.9679 152.158 31.5611C152.008 31.1544 151.945 30.7205 151.974 30.2878L155.187 33.5716Z" fill="white"/>
<path d="M159.148 35.6835L159.38 35.4814C159.478 35.4017 159.569 35.3138 159.653 35.2187C159.751 35.1321 159.843 35.0374 159.926 34.9358C160.027 34.8247 160.118 34.7135 160.209 34.5923C160.887 33.7232 161.339 32.6989 161.522 31.6117C161.633 31.1443 161.698 30.6671 161.714 30.187C161.714 30.0961 161.714 30.0153 161.714 29.9344C161.719 29.8503 161.719 29.7659 161.714 29.6818C161.67 29.3408 161.603 29.0031 161.512 28.6714C161.493 28.5926 161.469 28.515 161.441 28.4391C161.441 28.3582 161.391 28.2875 161.36 28.2168C161.237 27.8891 161.088 27.5716 160.916 27.267C160.879 27.1975 160.839 27.13 160.795 27.0649V27.0144C160.757 26.9466 160.713 26.8823 160.663 26.8224V26.7719C160.619 26.7022 160.572 26.6348 160.522 26.5698C160.416 26.4249 160.301 26.2865 160.178 26.1556C160.093 26.053 160.002 25.9551 159.905 25.8626L155.157 21.1138L150.408 25.8626C150.317 25.9636 150.226 26.0545 150.145 26.1556C150.064 26.2566 149.903 26.4284 149.791 26.5698C149.741 26.6348 149.694 26.7022 149.65 26.7719V26.8224L149.529 27.0144V27.0649L149.397 27.267C149.225 27.5716 149.076 27.8891 148.953 28.2168C148.92 28.2885 148.893 28.3629 148.872 28.4391L148.811 28.6714C148.721 29.0031 148.653 29.3408 148.609 29.6818C148.604 29.7659 148.604 29.8503 148.609 29.9344C148.609 30.0153 148.609 30.0961 148.609 30.187C148.599 30.6301 148.629 31.0731 148.7 31.5106C148.888 32.5985 149.342 33.6228 150.024 34.4913C150.115 34.6125 150.206 34.7236 150.307 34.8348C150.389 34.9339 150.477 35.0283 150.569 35.1177L150.842 35.3804H150.903L151.135 35.5825L151.408 35.7845C151.509 35.8577 151.613 35.9252 151.721 35.9866C152.784 36.6442 154.008 36.9925 155.258 36.9925C156.507 36.9925 157.732 36.6442 158.794 35.9866L159.097 35.7845L159.148 35.6835ZM154.995 35.825C153.92 35.831 152.868 35.517 151.972 34.9229C151.076 34.3289 150.377 33.4817 149.964 32.4892C149.552 31.4967 149.443 30.4039 149.654 29.3497C149.864 28.2956 150.383 27.3279 151.145 26.5698L154.975 22.7304L158.814 26.5698C159.571 27.3292 160.085 28.2956 160.293 29.3471C160.501 30.3987 160.393 31.4882 159.982 32.4783C159.571 33.4683 158.877 34.3145 157.985 34.9102C157.094 35.5058 156.047 35.8241 154.975 35.825H154.995Z" fill="white"/>
<path d="M157.349 28.2672L154.944 25.7917V27.2669L158.158 30.5507C158.193 29.7137 157.903 28.8954 157.349 28.2672Z" fill="white"/>
<path d="M141.355 24.5591L149.559 16.3548H156.783L159.41 13.7278L157.672 12H152.368L137 27.3679V32.6725L138.728 34.4103L141.355 31.7833V24.5591Z" fill="#0089FF"/>
<path d="M168.645 35.4408L160.441 43.6452H153.217L150.59 46.2722L152.328 47.9999H157.632L173 32.632V27.3275L171.272 25.5896L168.645 28.2166V35.4408Z" fill="#0089FF"/>
<path d="M161.341 15.7084L160.569 16.48L168.449 24.3604L169.221 23.5888L161.341 15.7084Z" fill="#0089FF"/>
<path d="M141.487 35.5616L140.715 36.3333L148.595 44.2136L149.367 43.442L141.487 35.5616Z" fill="#0089FF"/>
<path d="M300.8 24H301.2" stroke="#606580" stroke-width="2" stroke-miterlimit="10" stroke-linecap="round" stroke-linejoin="round"/>
<path d="M300.8 30H301.2" stroke="#606580" stroke-width="2" stroke-miterlimit="10" stroke-linecap="round" stroke-linejoin="round"/>
<path d="M300.8 36H301.2" stroke="#606580" stroke-width="2" stroke-miterlimit="10" stroke-linecap="round" stroke-linejoin="round"/>
</svg>
