<svg width="40" height="40" viewBox="0 0 40 40" fill="none" xmlns="http://www.w3.org/2000/svg">
<path d="M38.3333 20.0001C38.3333 30.1253 30.1252 38.3334 20 38.3334C9.87474 38.3334 1.66663 30.1253 1.66663 20.0001C1.66663 9.87486 9.87474 1.66675 20 1.66675" stroke="#606580" stroke-opacity="0.25" stroke-width="2" stroke-linecap="round"/>
<path d="M20 1.66675C9.87474 1.66675 1.66663 9.87486 1.66663 20.0001C1.66663 30.1253 9.87474 38.3334 20 38.3334C26.0263 38.3334 31.3736 35.4257 34.7153 30.9368" stroke="white" stroke-width="2" stroke-linecap="round"/>
<path d="M19.55 14.15L13.05 25.4C12.85 25.75 13.1 26.2 13.5 26.2H26.5C26.9 26.2 27.15 25.75 26.95 25.4L20.45 14.15C20.25 13.8 19.75 13.8 19.55 14.15Z" stroke="#606580" stroke-miterlimit="10" stroke-linecap="round" stroke-linejoin="round"/>
<path d="M20 18.75V21.3" stroke="#606580" stroke-miterlimit="10" stroke-linecap="round" stroke-linejoin="round"/>
<path d="M20 23.3501V23.6001" stroke="#606580" stroke-miterlimit="10" stroke-linecap="round" stroke-linejoin="round"/>
<path d="M31 16C35.4183 16 39 12.4183 39 8C39 3.58172 35.4183 0 31 0C26.5817 0 23 3.58172 23 8C23 12.4183 26.5817 16 31 16Z" fill="#FF1D25"/>
<path d="M30.2705 11H27.0801V10.332H28.2666V5.94629H27.0801V5.34863C27.5283 5.34863 27.8579 5.28564 28.0688 5.15967C28.2827 5.03076 28.4028 4.78906 28.4292 4.43457H29.1104V10.332H30.2705V11ZM35.5483 7.72607C35.5483 8.90088 35.377 9.76367 35.0342 10.3145C34.6943 10.8623 34.1685 11.1362 33.4565 11.1362C32.7358 11.1362 32.207 10.8564 31.8701 10.2969C31.5332 9.7373 31.3647 8.8833 31.3647 7.73486C31.3647 6.5542 31.5347 5.69141 31.8745 5.14648C32.2173 4.59863 32.7446 4.32471 33.4565 4.32471C34.1772 4.32471 34.7061 4.60742 35.043 5.17285C35.3799 5.73828 35.5483 6.58936 35.5483 7.72607ZM34.4233 9.72119C34.5083 9.50439 34.5684 9.23047 34.6035 8.89941C34.6387 8.56836 34.6562 8.17725 34.6562 7.72607C34.6562 7.27783 34.6387 6.88818 34.6035 6.55713C34.5684 6.22607 34.5068 5.95068 34.4189 5.73096C34.3311 5.5083 34.2095 5.33984 34.0542 5.22559C33.9019 5.1084 33.7026 5.0498 33.4565 5.0498C33.2134 5.0498 33.0127 5.1084 32.8545 5.22559C32.6992 5.33984 32.5762 5.51123 32.4854 5.73975C32.3975 5.9624 32.3374 6.24365 32.3052 6.5835C32.2729 6.92334 32.2568 7.30713 32.2568 7.73486C32.2568 8.19189 32.27 8.57422 32.2964 8.88184C32.3257 9.18945 32.3872 9.46484 32.481 9.70801C32.5659 9.93359 32.686 10.1079 32.8413 10.231C32.9995 10.3511 33.2046 10.4111 33.4565 10.4111C33.6997 10.4111 33.8989 10.354 34.0542 10.2397C34.2124 10.1226 34.3354 9.94971 34.4233 9.72119Z" fill="white"/>
</svg>
