<svg width="380" height="114" viewBox="0 0 380 114" fill="none" xmlns="http://www.w3.org/2000/svg">
<path d="M216 70C216 68.8954 216.895 68 218 68H378C379.105 68 380 68.8954 380 70V98C380 99.1046 379.105 100 378 100H218C216.895 100 216 99.1046 216 98V70Z" fill="#303549"/>
<path d="M250.5 91C246.65 91 243.5 87.85 243.5 84C243.5 80.15 246.65 77 250.5 77C254.35 77 257.5 80.15 257.5 84C257.5 87.85 254.35 91 250.5 91Z" stroke="white" stroke-miterlimit="10" stroke-linecap="round" stroke-linejoin="round"/>
<path d="M247.5 83.9L249.2 85.6C249.35 85.75 249.6 85.75 249.8 85.6L253.2 82.2" stroke="white" stroke-miterlimit="10" stroke-linecap="round" stroke-linejoin="round"/>
<path d="M274.371 85.0674C274.257 86.0449 273.895 86.8003 273.286 87.3335C272.681 87.8625 271.874 88.127 270.867 88.127C269.775 88.127 268.899 87.7355 268.239 86.9526C267.583 86.1698 267.255 85.1224 267.255 83.8105V82.9219C267.255 82.0628 267.408 81.3075 267.712 80.6558C268.021 80.0041 268.457 79.5047 269.02 79.1577C269.583 78.8065 270.235 78.6309 270.975 78.6309C271.957 78.6309 272.744 78.9059 273.336 79.4561C273.929 80.002 274.274 80.7594 274.371 81.7285H273.146C273.04 80.9922 272.81 80.459 272.454 80.1289C272.103 79.7988 271.61 79.6338 270.975 79.6338C270.196 79.6338 269.585 79.9215 269.141 80.4971C268.701 81.0726 268.48 81.8914 268.48 82.9536V83.8486C268.48 84.8516 268.69 85.6493 269.109 86.2417C269.528 86.8341 270.114 87.1304 270.867 87.1304C271.544 87.1304 272.063 86.978 272.422 86.6733C272.786 86.3644 273.028 85.8291 273.146 85.0674H274.371ZM277.996 85.0737H277.139V88H275.958V81.1318H277.139V84.0391H277.907L280.217 81.1318H281.639L278.922 84.4326L281.868 88H280.376L277.996 85.0737ZM287.117 88C287.049 87.8646 286.994 87.6234 286.952 87.2764C286.406 87.8434 285.755 88.127 284.997 88.127C284.32 88.127 283.764 87.9365 283.328 87.5557C282.896 87.1706 282.68 86.6839 282.68 86.0957C282.68 85.3805 282.951 84.8262 283.493 84.4326C284.039 84.0348 284.805 83.8359 285.791 83.8359H286.933V83.2964C286.933 82.8859 286.81 82.5601 286.565 82.3188C286.319 82.0734 285.958 81.9507 285.479 81.9507C285.061 81.9507 284.709 82.0565 284.426 82.2681C284.142 82.4797 284 82.7357 284 83.0361H282.82C282.82 82.6934 282.94 82.3633 283.182 82.0459C283.427 81.7243 283.757 81.4704 284.172 81.2842C284.591 81.098 285.05 81.0049 285.549 81.0049C286.341 81.0049 286.961 81.2038 287.409 81.6016C287.858 81.9951 288.09 82.5389 288.107 83.2329V86.394C288.107 87.0246 288.188 87.526 288.349 87.8984V88H287.117ZM285.168 87.105C285.537 87.105 285.886 87.0098 286.216 86.8193C286.546 86.6289 286.785 86.3813 286.933 86.0767V84.6675H286.013C284.574 84.6675 283.854 85.0885 283.854 85.9307C283.854 86.2988 283.977 86.5866 284.223 86.7939C284.468 87.0013 284.783 87.105 285.168 87.105ZM295.134 88H293.954V85.5117C293.437 85.6471 292.908 85.7148 292.367 85.7148C291.508 85.7148 290.852 85.4948 290.399 85.0547C289.95 84.6146 289.722 83.9883 289.713 83.1758V81.1255H290.888V83.2139C290.909 84.238 291.402 84.75 292.367 84.75C292.908 84.75 293.437 84.6823 293.954 84.5469V81.1318H295.134V88ZM301.26 88C301.192 87.8646 301.137 87.6234 301.095 87.2764C300.549 87.8434 299.897 88.127 299.14 88.127C298.463 88.127 297.906 87.9365 297.47 87.5557C297.039 87.1706 296.823 86.6839 296.823 86.0957C296.823 85.3805 297.094 84.8262 297.635 84.4326C298.181 84.0348 298.947 83.8359 299.933 83.8359H301.076V83.2964C301.076 82.8859 300.953 82.5601 300.708 82.3188C300.462 82.0734 300.1 81.9507 299.622 81.9507C299.203 81.9507 298.852 82.0565 298.568 82.2681C298.285 82.4797 298.143 82.7357 298.143 83.0361H296.962C296.962 82.6934 297.083 82.3633 297.324 82.0459C297.57 81.7243 297.9 81.4704 298.314 81.2842C298.733 81.098 299.193 81.0049 299.692 81.0049C300.483 81.0049 301.103 81.2038 301.552 81.6016C302 81.9951 302.233 82.5389 302.25 83.2329V86.394C302.25 87.0246 302.33 87.526 302.491 87.8984V88H301.26ZM299.311 87.105C299.679 87.105 300.028 87.0098 300.358 86.8193C300.688 86.6289 300.928 86.3813 301.076 86.0767V84.6675H300.155C298.716 84.6675 297.997 85.0885 297.997 85.9307C297.997 86.2988 298.12 86.5866 298.365 86.7939C298.611 87.0013 298.926 87.105 299.311 87.105ZM309.093 82.084H306.789V88H305.614V82.084H303.354V81.1318H309.093V82.084ZM311.518 83.4995H313.301C314.08 83.508 314.696 83.7111 315.148 84.1089C315.601 84.5067 315.828 85.0462 315.828 85.7275C315.828 86.4131 315.595 86.9632 315.129 87.3779C314.664 87.7926 314.038 88 313.25 88H310.343V81.1318H311.518V83.4995ZM311.518 84.458V87.0415H313.263C313.703 87.0415 314.044 86.9294 314.285 86.7051C314.526 86.4766 314.647 86.1655 314.647 85.772C314.647 85.3911 314.528 85.0801 314.292 84.8389C314.059 84.5934 313.731 84.4665 313.308 84.458H311.518ZM320.208 84.5024C320.208 83.8296 320.339 83.2244 320.601 82.687C320.868 82.1496 321.236 81.7349 321.706 81.4429C322.18 81.1509 322.719 81.0049 323.324 81.0049C324.259 81.0049 325.015 81.3286 325.59 81.9761C326.17 82.6235 326.46 83.4847 326.46 84.5596V84.6421C326.46 85.3107 326.331 85.9116 326.073 86.4448C325.819 86.9738 325.453 87.3864 324.975 87.6826C324.501 87.9788 323.955 88.127 323.337 88.127C322.406 88.127 321.651 87.8032 321.071 87.1558C320.495 86.5083 320.208 85.6514 320.208 84.585V84.5024ZM321.388 84.6421C321.388 85.4038 321.564 86.0153 321.915 86.4766C322.271 86.9378 322.744 87.1685 323.337 87.1685C323.934 87.1685 324.408 86.9357 324.759 86.4702C325.11 86.0005 325.286 85.3446 325.286 84.5024C325.286 83.7492 325.106 83.1398 324.746 82.6743C324.391 82.2046 323.917 81.9697 323.324 81.9697C322.744 81.9697 322.277 82.2004 321.921 82.6616C321.566 83.1229 321.388 83.783 321.388 84.6421ZM332.896 82.084H330.592V88H329.418V82.084H327.158V81.1318H332.896V82.084ZM339.225 88H338.044V85.5117C337.528 85.6471 336.999 85.7148 336.458 85.7148C335.598 85.7148 334.943 85.4948 334.49 85.0547C334.041 84.6146 333.813 83.9883 333.804 83.1758V81.1255H334.979V83.2139C335 84.238 335.493 84.75 336.458 84.75C336.999 84.75 337.528 84.6823 338.044 84.5469V81.1318H339.225V88ZM343.96 88.127C343.029 88.127 342.272 87.8223 341.688 87.2129C341.104 86.5993 340.812 85.7804 340.812 84.7563V84.5405C340.812 83.8592 340.941 83.252 341.199 82.7188C341.462 82.1813 341.826 81.7624 342.291 81.4619C342.761 81.1572 343.269 81.0049 343.814 81.0049C344.707 81.0049 345.401 81.299 345.896 81.8872C346.392 82.4754 346.639 83.3175 346.639 84.4136V84.9023H341.986C342.003 85.5794 342.2 86.1274 342.577 86.5464C342.958 86.9611 343.44 87.1685 344.024 87.1685C344.439 87.1685 344.79 87.0838 345.078 86.9146C345.365 86.7453 345.617 86.521 345.833 86.2417L346.55 86.8003C345.975 87.6847 345.111 88.127 343.96 88.127ZM343.814 81.9697C343.34 81.9697 342.943 82.1432 342.621 82.4902C342.299 82.833 342.101 83.3154 342.024 83.9375H345.465V83.8486C345.431 83.252 345.27 82.7907 344.982 82.4648C344.695 82.1348 344.305 81.9697 343.814 81.9697ZM353.031 82.084H350.727V88H349.553V82.084H347.293V81.1318H353.031V82.084Z" fill="#D7E2F2"/>
<path d="M18.9233 8.34229C18.9233 9.10856 18.7944 9.77816 18.5366 10.3511C18.2788 10.9204 17.9136 11.3555 17.4409 11.6562C16.9683 11.957 16.4168 12.1074 15.7866 12.1074C15.1707 12.1074 14.6247 11.957 14.1484 11.6562C13.6722 11.3519 13.3016 10.9204 13.0366 10.3618C12.7752 9.79964 12.641 9.14974 12.6338 8.41211V7.84814C12.6338 7.09619 12.7645 6.43197 13.0259 5.85547C13.2873 5.27897 13.6561 4.83854 14.1323 4.53418C14.6121 4.22624 15.16 4.07227 15.7759 4.07227C16.4025 4.07227 16.9539 4.22445 17.4302 4.52881C17.91 4.82959 18.2788 5.26823 18.5366 5.84473C18.7944 6.41764 18.9233 7.08545 18.9233 7.84814V8.34229ZM17.8975 7.8374C17.8975 6.90999 17.7113 6.19922 17.3389 5.70508C16.9665 5.20736 16.4455 4.9585 15.7759 4.9585C15.1242 4.9585 14.6104 5.20736 14.2344 5.70508C13.862 6.19922 13.6704 6.88672 13.6597 7.76758V8.34229C13.6597 9.24105 13.8477 9.94824 14.2236 10.4639C14.6032 10.9759 15.1242 11.2319 15.7866 11.2319C16.4526 11.2319 16.9683 10.9902 17.3335 10.5068C17.6987 10.0199 17.8867 9.3234 17.8975 8.41748V7.8374ZM24.6328 6.99414H22.6831V12H21.6895V6.99414H19.7773V6.18848H24.6328V6.99414ZM29.9878 12H28.9888V9.89453C28.5519 10.0091 28.1043 10.0664 27.646 10.0664C26.9191 10.0664 26.3641 9.88021 25.981 9.50781C25.6014 9.13542 25.408 8.60547 25.4009 7.91797V6.18311H26.3945V7.9502C26.4124 8.81673 26.8296 9.25 27.646 9.25C28.1043 9.25 28.5519 9.19271 28.9888 9.07812V6.18848H29.9878V12ZM33.9946 12.1074C33.2069 12.1074 32.5659 11.8496 32.0718 11.334C31.5776 10.8148 31.3306 10.1219 31.3306 9.25537V9.07275C31.3306 8.49626 31.4398 7.98242 31.6582 7.53125C31.8802 7.0765 32.1882 6.72201 32.582 6.46777C32.9795 6.20996 33.4092 6.08105 33.8711 6.08105C34.6266 6.08105 35.2139 6.32992 35.6328 6.82764C36.0518 7.32536 36.2612 8.03792 36.2612 8.96533V9.37891H32.3242C32.3385 9.95182 32.505 10.4155 32.8237 10.77C33.146 11.1209 33.5542 11.2964 34.0483 11.2964C34.3993 11.2964 34.6965 11.2248 34.9399 11.0815C35.1834 10.9383 35.3965 10.7485 35.5791 10.5122L36.186 10.9849C35.6991 11.7332 34.9686 12.1074 33.9946 12.1074ZM33.8711 6.89746C33.4701 6.89746 33.1335 7.04427 32.8613 7.33789C32.5892 7.62793 32.4209 8.03613 32.3564 8.5625H35.2676V8.4873C35.2389 7.98242 35.1029 7.59212 34.8594 7.31641C34.6159 7.03711 34.2865 6.89746 33.8711 6.89746ZM41.6699 6.99414H39.7202V12H38.7266V6.99414H36.8145V6.18848H41.6699V6.99414Z" fill="#8C99B2"/>
<path d="M12 26C12 24.8954 12.8954 24 14 24H378C379.105 24 380 24.8954 380 26V54C380 55.1046 379.105 56 378 56H14C12.8954 56 12 55.1046 12 54V26Z" fill="#12151E"/>
<path d="M14 25H378V23H14V25ZM379 26V54H381V26H379ZM378 55H14V57H378V55ZM13 54V26H11V54H13ZM14 55C13.4477 55 13 54.5523 13 54H11C11 55.6569 12.3432 57 14 57V55ZM379 54C379 54.5523 378.552 55 378 55V57C379.657 57 381 55.6569 381 54H379ZM378 25C378.552 25 379 25.4477 379 26H381C381 24.3431 379.657 23 378 23V25ZM14 23C12.3431 23 11 24.3431 11 26H13C13 25.4477 13.4477 25 14 25V23Z" fill="#4B5169"/>
<path d="M27.4585 35.7607H24.4878V44H23.2754V35.7607H20.311V34.7578H27.4585V35.7607ZM32.3906 37.1318H33.5649V44H32.3906V38.9917L29.2231 44H28.0488V37.1318H29.2231V42.1465L32.3906 37.1318ZM41.0679 44H39.8936V38.103H36.7324V44H35.5518V37.1318H41.0679V44ZM45.8667 40.5024C45.8667 39.8296 45.9979 39.2244 46.2603 38.687C46.5269 38.1496 46.895 37.7349 47.3647 37.4429C47.8387 37.1509 48.3783 37.0049 48.9834 37.0049C49.9186 37.0049 50.674 37.3286 51.2495 37.9761C51.8293 38.6235 52.1191 39.4847 52.1191 40.5596V40.6421C52.1191 41.3107 51.9901 41.9116 51.7319 42.4448C51.478 42.9738 51.112 43.3864 50.6338 43.6826C50.1598 43.9788 49.6139 44.127 48.9961 44.127C48.0651 44.127 47.3097 43.8032 46.73 43.1558C46.1545 42.5083 45.8667 41.6514 45.8667 40.585V40.5024ZM47.0474 40.6421C47.0474 41.4038 47.223 42.0153 47.5742 42.4766C47.9297 42.9378 48.4036 43.1685 48.9961 43.1685C49.5928 43.1685 50.0667 42.9357 50.418 42.4702C50.7692 42.0005 50.9448 41.3446 50.9448 40.5024C50.9448 39.7492 50.765 39.1398 50.4053 38.6743C50.0498 38.2046 49.5758 37.9697 48.9834 37.9697C48.4036 37.9697 47.936 38.2004 47.5806 38.6616C47.2251 39.1229 47.0474 39.783 47.0474 40.6421ZM58.5557 38.084H56.2515V44H55.0771V38.084H52.8174V37.1318H58.5557V38.084ZM64.8843 44H63.7036V41.5117C63.1873 41.6471 62.6584 41.7148 62.1167 41.7148C61.2576 41.7148 60.6017 41.4948 60.1489 41.0547C59.7004 40.6146 59.4718 39.9883 59.4634 39.1758V37.1255H60.6377V39.2139C60.6589 40.238 61.1519 40.75 62.1167 40.75C62.6584 40.75 63.1873 40.6823 63.7036 40.5469V37.1318H64.8843V44ZM69.6196 44.127C68.6886 44.127 67.9312 43.8223 67.3472 43.2129C66.7632 42.5993 66.4712 41.7804 66.4712 40.7563V40.5405C66.4712 39.8592 66.6003 39.252 66.8584 38.7188C67.1208 38.1813 67.4847 37.7624 67.9502 37.4619C68.4199 37.1572 68.9277 37.0049 69.4736 37.0049C70.3665 37.0049 71.0605 37.299 71.5557 37.8872C72.0508 38.4754 72.2983 39.3175 72.2983 40.4136V40.9023H67.6455C67.6624 41.5794 67.8592 42.1274 68.2358 42.5464C68.6167 42.9611 69.0991 43.1685 69.6831 43.1685C70.0978 43.1685 70.4491 43.0838 70.7368 42.9146C71.0246 42.7453 71.2764 42.521 71.4922 42.2417L72.2095 42.8003C71.634 43.6847 70.7707 44.127 69.6196 44.127ZM69.4736 37.9697C68.9997 37.9697 68.6019 38.1432 68.2803 38.4902C67.9587 38.833 67.7598 39.3154 67.6836 39.9375H71.124V39.8486C71.0902 39.252 70.9294 38.7907 70.6416 38.4648C70.3538 38.1348 69.9645 37.9697 69.4736 37.9697ZM78.6904 38.084H76.3862V44H75.2119V38.084H72.9521V37.1318H78.6904V38.084ZM83.9717 44C83.904 43.8646 83.849 43.6234 83.8066 43.2764C83.2607 43.8434 82.609 44.127 81.8516 44.127C81.1745 44.127 80.618 43.9365 80.1821 43.5557C79.7505 43.1706 79.5347 42.6839 79.5347 42.0957C79.5347 41.3805 79.8055 40.8262 80.3472 40.4326C80.8931 40.0348 81.659 39.8359 82.645 39.8359H83.7876V39.2964C83.7876 38.8859 83.6649 38.5601 83.4194 38.3188C83.174 38.0734 82.8122 37.9507 82.334 37.9507C81.915 37.9507 81.5638 38.0565 81.2803 38.2681C80.9967 38.4797 80.855 38.7357 80.855 39.0361H79.6743C79.6743 38.6934 79.7949 38.3633 80.0361 38.0459C80.2816 37.7243 80.6117 37.4704 81.0264 37.2842C81.4453 37.098 81.9045 37.0049 82.4038 37.0049C83.1951 37.0049 83.8151 37.2038 84.2637 37.6016C84.7122 37.9951 84.945 38.5389 84.9619 39.2329V42.394C84.9619 43.0246 85.0423 43.526 85.2031 43.8984V44H83.9717ZM82.0229 43.105C82.3911 43.105 82.7402 43.0098 83.0703 42.8193C83.4004 42.6289 83.6395 42.3813 83.7876 42.0767V40.6675H82.8672C81.4284 40.6675 80.709 41.0885 80.709 41.9307C80.709 42.2988 80.8317 42.5866 81.0771 42.7939C81.3226 43.0013 81.6379 43.105 82.0229 43.105Z" fill="#D7E2F2"/>
<path d="M370 37L364 43L358 37" stroke="#8C99B2" stroke-miterlimit="10" stroke-linecap="round" stroke-linejoin="round"/>
<path d="M12 70C12 68.8954 12.8954 68 14 68H202C203.105 68 204 68.8954 204 70V98C204 99.1046 203.105 100 202 100H14C12.8954 100 12 99.1046 12 98V70Z" fill="#12151E"/>
<path d="M14 69H202V67H14V69ZM203 70V98H205V70H203ZM202 99H14V101H202V99ZM13 98V70H11V98H13ZM14 99C13.4477 99 13 98.5523 13 98H11C11 99.6569 12.3432 101 14 101V99ZM203 98C203 98.5523 202.552 99 202 99V101C203.657 101 205 99.6569 205 98H203ZM202 69C202.552 69 203 69.4477 203 70H205C205 68.3431 203.657 67 202 67V69ZM14 67C12.3431 67 11 68.3431 11 70H13C13 69.4477 13.4477 69 14 69V67Z" fill="#4B5169"/>
<path d="M54.6274 89H53.4468V81.1733L51.0791 82.043V80.9766L54.4434 79.7134H54.6274V89ZM62.6763 79.7515V80.748H62.4604C61.5464 80.765 60.8185 81.0358 60.2769 81.5605C59.7352 82.0853 59.422 82.8237 59.3374 83.7759C59.8241 83.2173 60.4884 82.938 61.3306 82.938C62.1346 82.938 62.7757 83.2215 63.2539 83.7886C63.7363 84.3556 63.9775 85.0877 63.9775 85.9849C63.9775 86.937 63.7173 87.6987 63.1968 88.27C62.6805 88.8413 61.9865 89.127 61.1147 89.127C60.2303 89.127 59.513 88.7884 58.9629 88.1113C58.4128 87.43 58.1377 86.554 58.1377 85.4834V85.0327C58.1377 83.3315 58.4995 82.0324 59.2231 81.1353C59.951 80.2339 61.0322 79.7726 62.4668 79.7515H62.6763ZM61.1338 83.9155C60.7318 83.9155 60.3615 84.0361 60.0229 84.2773C59.6844 84.5186 59.4495 84.8211 59.3184 85.1851V85.6167C59.3184 86.3784 59.4897 86.992 59.8325 87.4575C60.1753 87.923 60.6027 88.1558 61.1147 88.1558C61.6437 88.1558 62.0584 87.9611 62.3589 87.5718C62.6636 87.1825 62.8159 86.6725 62.8159 86.042C62.8159 85.4072 62.6615 84.8952 62.3525 84.5059C62.0479 84.1123 61.6416 83.9155 61.1338 83.9155ZM65.5137 88.3843C65.5137 88.1812 65.5729 88.0119 65.6914 87.8765C65.8141 87.741 65.9961 87.6733 66.2373 87.6733C66.4785 87.6733 66.6605 87.741 66.7832 87.8765C66.9102 88.0119 66.9736 88.1812 66.9736 88.3843C66.9736 88.5789 66.9102 88.7419 66.7832 88.873C66.6605 89.0042 66.4785 89.0698 66.2373 89.0698C65.9961 89.0698 65.8141 89.0042 65.6914 88.873C65.5729 88.7419 65.5137 88.5789 65.5137 88.3843ZM74.5908 85.0581C74.5908 86.4334 74.356 87.4554 73.8862 88.124C73.4165 88.7926 72.6823 89.127 71.6836 89.127C70.6976 89.127 69.9676 88.8011 69.4937 88.1494C69.0197 87.4935 68.7743 86.516 68.7573 85.2168V83.6489C68.7573 82.2905 68.9922 81.2812 69.4619 80.6211C69.9316 79.9609 70.668 79.6309 71.6709 79.6309C72.6654 79.6309 73.3975 79.9504 73.8672 80.5894C74.3369 81.2241 74.5781 82.2059 74.5908 83.5347V85.0581ZM73.4165 83.4521C73.4165 82.4577 73.2769 81.734 72.9976 81.2812C72.7183 80.8242 72.276 80.5957 71.6709 80.5957C71.07 80.5957 70.632 80.8221 70.3569 81.2749C70.0819 81.7277 69.9401 82.4238 69.9316 83.3633V85.2422C69.9316 86.2409 70.0755 86.9793 70.3633 87.4575C70.6553 87.9315 71.0954 88.1685 71.6836 88.1685C72.2633 88.1685 72.6929 87.9442 72.9722 87.4956C73.2557 87.047 73.4038 86.3403 73.4165 85.3755V83.4521ZM82.062 80.418L78.2344 89H77.0029L80.8179 80.7227H75.8159V79.7578H82.062V80.418ZM83.541 88.3843C83.541 88.1812 83.6003 88.0119 83.7188 87.8765C83.8415 87.741 84.0234 87.6733 84.2646 87.6733C84.5059 87.6733 84.6878 87.741 84.8105 87.8765C84.9375 88.0119 85.001 88.1812 85.001 88.3843C85.001 88.5789 84.9375 88.7419 84.8105 88.873C84.6878 89.0042 84.5059 89.0698 84.2646 89.0698C84.0234 89.0698 83.8415 89.0042 83.7188 88.873C83.6003 88.7419 83.541 88.5789 83.541 88.3843ZM92.8784 89H86.8228V88.1558L90.022 84.6011C90.4959 84.0636 90.8218 83.6278 90.9995 83.2935C91.1815 82.9549 91.2725 82.6058 91.2725 82.2461C91.2725 81.7637 91.1265 81.368 90.8345 81.0591C90.5425 80.7502 90.1532 80.5957 89.6665 80.5957C89.0825 80.5957 88.6276 80.7629 88.3018 81.0972C87.9801 81.4272 87.8193 81.8885 87.8193 82.481H86.645C86.645 81.6304 86.918 80.9427 87.4639 80.418C88.014 79.8932 88.7482 79.6309 89.6665 79.6309C90.5256 79.6309 91.2048 79.8573 91.7041 80.3101C92.2035 80.7586 92.4531 81.3574 92.4531 82.1064C92.4531 83.0163 91.8734 84.0996 90.7139 85.3564L88.2383 88.0415H92.8784V89ZM99.918 85.0581C99.918 86.4334 99.6831 87.4554 99.2134 88.124C98.7437 88.7926 98.0094 89.127 97.0107 89.127C96.0247 89.127 95.2948 88.8011 94.8208 88.1494C94.3468 87.4935 94.1014 86.516 94.0845 85.2168V83.6489C94.0845 82.2905 94.3193 81.2812 94.7891 80.6211C95.2588 79.9609 95.9951 79.6309 96.998 79.6309C97.9925 79.6309 98.7246 79.9504 99.1943 80.5894C99.6641 81.2241 99.9053 82.2059 99.918 83.5347V85.0581ZM98.7437 83.4521C98.7437 82.4577 98.604 81.734 98.3247 81.2812C98.0454 80.8242 97.6032 80.5957 96.998 80.5957C96.3971 80.5957 95.9591 80.8221 95.6841 81.2749C95.409 81.7277 95.2673 82.4238 95.2588 83.3633V85.2422C95.2588 86.2409 95.4027 86.9793 95.6904 87.4575C95.9824 87.9315 96.4225 88.1685 97.0107 88.1685C97.5905 88.1685 98.02 87.9442 98.2993 87.4956C98.5828 87.047 98.731 86.3403 98.7437 85.3755V83.4521ZM107.478 89H101.422V88.1558L104.622 84.6011C105.096 84.0636 105.421 83.6278 105.599 83.2935C105.781 82.9549 105.872 82.6058 105.872 82.2461C105.872 81.7637 105.726 81.368 105.434 81.0591C105.142 80.7502 104.753 80.5957 104.266 80.5957C103.682 80.5957 103.227 80.7629 102.901 81.0972C102.58 81.4272 102.419 81.8885 102.419 82.481H101.245C101.245 81.6304 101.518 80.9427 102.063 80.418C102.614 79.8932 103.348 79.6309 104.266 79.6309C105.125 79.6309 105.804 79.8573 106.304 80.3101C106.803 80.7586 107.053 81.3574 107.053 82.1064C107.053 83.0163 106.473 84.0996 105.313 85.3564L102.838 88.0415H107.478V89ZM114.518 85.0581C114.518 86.4334 114.283 87.4554 113.813 88.124C113.343 88.7926 112.609 89.127 111.61 89.127C110.624 89.127 109.894 88.8011 109.42 88.1494C108.946 87.4935 108.701 86.516 108.684 85.2168V83.6489C108.684 82.2905 108.919 81.2812 109.389 80.6211C109.858 79.9609 110.595 79.6309 111.598 79.6309C112.592 79.6309 113.324 79.9504 113.794 80.5894C114.264 81.2241 114.505 82.2059 114.518 83.5347V85.0581ZM113.343 83.4521C113.343 82.4577 113.204 81.734 112.924 81.2812C112.645 80.8242 112.203 80.5957 111.598 80.5957C110.997 80.5957 110.559 80.8221 110.284 81.2749C110.009 81.7277 109.867 82.4238 109.858 83.3633V85.2422C109.858 86.2409 110.002 86.9793 110.29 87.4575C110.582 87.9315 111.022 88.1685 111.61 88.1685C112.19 88.1685 112.62 87.9442 112.899 87.4956C113.182 87.047 113.331 86.3403 113.343 85.3755V83.4521ZM121.811 85.5532H118.713V84.5947H121.811V85.5532ZM127.771 83.8076H128.654C129.208 83.7992 129.644 83.6532 129.961 83.3696C130.279 83.0861 130.438 82.7031 130.438 82.2207C130.438 81.1374 129.898 80.5957 128.819 80.5957C128.311 80.5957 127.905 80.7417 127.6 81.0337C127.3 81.3215 127.149 81.7044 127.149 82.1826H125.975C125.975 81.4505 126.242 80.8433 126.775 80.3608C127.312 79.8742 127.994 79.6309 128.819 79.6309C129.691 79.6309 130.374 79.8615 130.869 80.3228C131.364 80.784 131.612 81.4251 131.612 82.2461C131.612 82.6481 131.481 83.0374 131.218 83.4141C130.96 83.7907 130.607 84.0721 130.158 84.2583C130.666 84.4191 131.057 84.6857 131.333 85.0581C131.612 85.4305 131.751 85.8854 131.751 86.4229C131.751 87.2523 131.481 87.9103 130.939 88.397C130.397 88.8836 129.693 89.127 128.825 89.127C127.958 89.127 127.251 88.8921 126.705 88.4224C126.163 87.9526 125.893 87.3327 125.893 86.5625H127.073C127.073 87.0492 127.232 87.4385 127.549 87.7305C127.867 88.0225 128.292 88.1685 128.825 88.1685C129.392 88.1685 129.826 88.0203 130.126 87.7241C130.427 87.4279 130.577 87.0026 130.577 86.4482C130.577 85.9108 130.412 85.4982 130.082 85.2104C129.752 84.9227 129.276 84.7746 128.654 84.7661H127.771V83.8076ZM139.159 85.0581C139.159 86.4334 138.924 87.4554 138.455 88.124C137.985 88.7926 137.251 89.127 136.252 89.127C135.266 89.127 134.536 88.8011 134.062 88.1494C133.588 87.4935 133.343 86.516 133.326 85.2168V83.6489C133.326 82.2905 133.561 81.2812 134.03 80.6211C134.5 79.9609 135.236 79.6309 136.239 79.6309C137.234 79.6309 137.966 79.9504 138.436 80.5894C138.905 81.2241 139.146 82.2059 139.159 83.5347V85.0581ZM137.985 83.4521C137.985 82.4577 137.845 81.734 137.566 81.2812C137.287 80.8242 136.844 80.5957 136.239 80.5957C135.638 80.5957 135.2 80.8221 134.925 81.2749C134.65 81.7277 134.508 82.4238 134.5 83.3633V85.2422C134.5 86.2409 134.644 86.9793 134.932 87.4575C135.224 87.9315 135.664 88.1685 136.252 88.1685C136.832 88.1685 137.261 87.9442 137.541 87.4956C137.824 87.047 137.972 86.3403 137.985 85.3755V83.4521ZM140.81 88.3843C140.81 88.1812 140.869 88.0119 140.987 87.8765C141.11 87.741 141.292 87.6733 141.533 87.6733C141.774 87.6733 141.956 87.741 142.079 87.8765C142.206 88.0119 142.27 88.1812 142.27 88.3843C142.27 88.5789 142.206 88.7419 142.079 88.873C141.956 89.0042 141.774 89.0698 141.533 89.0698C141.292 89.0698 141.11 89.0042 140.987 88.873C140.869 88.7419 140.81 88.5789 140.81 88.3843ZM149.887 85.0581C149.887 86.4334 149.652 87.4554 149.182 88.124C148.712 88.7926 147.978 89.127 146.979 89.127C145.993 89.127 145.264 88.8011 144.79 88.1494C144.316 87.4935 144.07 86.516 144.053 85.2168V83.6489C144.053 82.2905 144.288 81.2812 144.758 80.6211C145.228 79.9609 145.964 79.6309 146.967 79.6309C147.961 79.6309 148.693 79.9504 149.163 80.5894C149.633 81.2241 149.874 82.2059 149.887 83.5347V85.0581ZM148.712 83.4521C148.712 82.4577 148.573 81.734 148.293 81.2812C148.014 80.8242 147.572 80.5957 146.967 80.5957C146.366 80.5957 145.928 80.8221 145.653 81.2749C145.378 81.7277 145.236 82.4238 145.228 83.3633V85.2422C145.228 86.2409 145.371 86.9793 145.659 87.4575C145.951 87.9315 146.391 88.1685 146.979 88.1685C147.559 88.1685 147.989 87.9442 148.268 87.4956C148.552 87.047 148.7 86.3403 148.712 85.3755V83.4521ZM157.358 80.418L153.53 89H152.299L156.114 80.7227H151.112V79.7578H157.358V80.418ZM158.837 88.3843C158.837 88.1812 158.896 88.0119 159.015 87.8765C159.137 87.741 159.319 87.6733 159.561 87.6733C159.802 87.6733 159.984 87.741 160.106 87.8765C160.233 88.0119 160.297 88.1812 160.297 88.3843C160.297 88.5789 160.233 88.7419 160.106 88.873C159.984 89.0042 159.802 89.0698 159.561 89.0698C159.319 89.0698 159.137 89.0042 159.015 88.873C158.896 88.7419 158.837 88.5789 158.837 88.3843ZM168.174 89H162.119V88.1558L165.318 84.6011C165.792 84.0636 166.118 83.6278 166.295 83.2935C166.477 82.9549 166.568 82.6058 166.568 82.2461C166.568 81.7637 166.422 81.368 166.13 81.0591C165.838 80.7502 165.449 80.5957 164.962 80.5957C164.378 80.5957 163.924 80.7629 163.598 81.0972C163.276 81.4272 163.115 81.8885 163.115 82.481H161.941C161.941 81.6304 162.214 80.9427 162.76 80.418C163.31 79.8932 164.044 79.6309 164.962 79.6309C165.821 79.6309 166.501 79.8573 167 80.3101C167.499 80.7586 167.749 81.3574 167.749 82.1064C167.749 83.0163 167.169 84.0996 166.01 85.3564L163.534 88.0415H168.174V89ZM175.214 85.0581C175.214 86.4334 174.979 87.4554 174.509 88.124C174.04 88.7926 173.305 89.127 172.307 89.127C171.321 89.127 170.591 88.8011 170.117 88.1494C169.643 87.4935 169.397 86.516 169.38 85.2168V83.6489C169.38 82.2905 169.615 81.2812 170.085 80.6211C170.555 79.9609 171.291 79.6309 172.294 79.6309C173.288 79.6309 174.021 79.9504 174.49 80.5894C174.96 81.2241 175.201 82.2059 175.214 83.5347V85.0581ZM174.04 83.4521C174.04 82.4577 173.9 81.734 173.621 81.2812C173.341 80.8242 172.899 80.5957 172.294 80.5957C171.693 80.5957 171.255 80.8221 170.98 81.2749C170.705 81.7277 170.563 82.4238 170.555 83.3633V85.2422C170.555 86.2409 170.699 86.9793 170.986 87.4575C171.278 87.9315 171.718 88.1685 172.307 88.1685C172.886 88.1685 173.316 87.9442 173.595 87.4956C173.879 87.047 174.027 86.3403 174.04 85.3755V83.4521ZM182.774 89H176.718V88.1558L179.917 84.6011C180.391 84.0636 180.717 83.6278 180.895 83.2935C181.077 82.9549 181.168 82.6058 181.168 82.2461C181.168 81.7637 181.022 81.368 180.73 81.0591C180.438 80.7502 180.049 80.5957 179.562 80.5957C178.978 80.5957 178.523 80.7629 178.197 81.0972C177.876 81.4272 177.715 81.8885 177.715 82.481H176.541C176.541 81.6304 176.813 80.9427 177.359 80.418C177.91 79.8932 178.644 79.6309 179.562 79.6309C180.421 79.6309 181.1 79.8573 181.6 80.3101C182.099 80.7586 182.349 81.3574 182.349 82.1064C182.349 83.0163 181.769 84.0996 180.609 85.3564L178.134 88.0415H182.774V89ZM189.813 85.0581C189.813 86.4334 189.579 87.4554 189.109 88.124C188.639 88.7926 187.905 89.127 186.906 89.127C185.92 89.127 185.19 88.8011 184.716 88.1494C184.242 87.4935 183.997 86.516 183.98 85.2168V83.6489C183.98 82.2905 184.215 81.2812 184.685 80.6211C185.154 79.9609 185.891 79.6309 186.894 79.6309C187.888 79.6309 188.62 79.9504 189.09 80.5894C189.56 81.2241 189.801 82.2059 189.813 83.5347V85.0581ZM188.639 83.4521C188.639 82.4577 188.5 81.734 188.22 81.2812C187.941 80.8242 187.499 80.5957 186.894 80.5957C186.293 80.5957 185.855 80.8221 185.58 81.2749C185.305 81.7277 185.163 82.4238 185.154 83.3633V85.2422C185.154 86.2409 185.298 86.9793 185.586 87.4575C185.878 87.9315 186.318 88.1685 186.906 88.1685C187.486 88.1685 187.916 87.9442 188.195 87.4956C188.478 87.047 188.626 86.3403 188.639 85.3755V83.4521Z" fill="#D7E2F2"/>
<path d="M31.6625 78.575H27.6375" stroke="#8C99B2" stroke-miterlimit="10" stroke-linecap="round" stroke-linejoin="round"/>
<path d="M25.7125 78.575H24.4C23.6125 78.575 23 79.1875 23 79.975V89.6C23 90.3875 23.6125 91 24.4 91H35.075C35.8625 91 36.475 90.3875 36.475 89.6V79.975C36.475 79.1875 35.8625 78.575 35.075 78.575H33.7625" stroke="#8C99B2" stroke-miterlimit="10" stroke-linecap="round" stroke-linejoin="round"/>
<path d="M26.675 77C26.2375 77 25.8 77.35 25.8 77.875V79.8C25.8 80.2375 26.15 80.675 26.675 80.675C27.1125 80.675 27.55 80.325 27.55 79.8V77.875C27.55 77.35 27.2 77 26.675 77Z" stroke="#8C99B2" stroke-miterlimit="10" stroke-linecap="round" stroke-linejoin="round"/>
<path d="M32.8 77C32.3625 77 31.925 77.35 31.925 77.875V79.8C31.925 80.2375 32.275 80.675 32.8 80.675C33.2375 80.675 33.675 80.325 33.675 79.8V77.875C33.675 77.35 33.325 77 32.8 77Z" stroke="#8C99B2" stroke-miterlimit="10" stroke-linecap="round" stroke-linejoin="round"/>
<path d="M23.175 82.8625H36.0375" stroke="#8C99B2" stroke-miterlimit="10" stroke-linecap="round" stroke-linejoin="round"/>
</svg>
