<svg width="32" height="32" viewBox="0 0 32 32" fill="none" xmlns="http://www.w3.org/2000/svg">
<path fill-rule="evenodd" clip-rule="evenodd" d="M16 0C24.8 0 32 7.2 32 16C32 24.8 24.8 32 16 32C7.2 32 0 24.8 0 16C0 7.2 7.2 0 16 0ZM6.26667 26.1333C7.2 25.7333 8.13333 25.2 9.2 24.6667C10.2667 24.2667 11.4667 23.8667 12.1333 23.0667C12.8 22.4 12.9333 20.4 12.4 19.4667C12.1333 19.0667 11.8667 18.6667 11.6 18C11.0667 16.4 11.7333 17.4667 10.8 16.5333C10.4 16.1333 10.2667 15.6 10.2667 14.9333C10.2667 13.7333 10.8 14.4 10.5333 13.2C9.73333 9.2 10.2667 5.33333 15.6 5.33333C17.6 5.33333 17.8667 6.26667 18.8 6.53333C21.6 7.46667 21.3333 10.5333 20.8 12.9333C20.4 14.5333 20.6667 13.6 20.9333 14.6667C21.0667 15.2 20.8 16.1333 20.5333 16.4C19.8667 17.3333 20.1333 16.2667 19.6 17.8667C19.2 20.1333 18.6667 18.8 18.6667 21.3333C18.6667 22.1333 18.8 22.6667 19.2 23.2C19.8667 24 22.5333 24.9333 23.7333 25.4667C24.2667 25.7333 24.8 26.1333 25.2 26.2667C34.1333 17.8667 28.4 2 15.6 2C1.6 1.86667 -2 20.9333 6.26667 26.1333Z" fill="#4B5169"/>
</svg>
