<svg width="36" height="37" viewBox="0 0 36 37" fill="none" xmlns="http://www.w3.org/2000/svg">
<path d="M23.7224 34.7884H2.65086V32.466H24.6854L25.7899 30.8234H22.7028V17.7952C22.7028 17.5774 22.6163 17.3685 22.4623 17.2145C22.3082 17.0604 22.0993 16.9739 21.8815 16.9739H19.6441V10.6581C19.6441 9.90695 19.9424 9.18657 20.4736 8.65543C21.0047 8.12429 21.7251 7.8259 22.4763 7.8259H29.6417V10.2616C28.4838 10.4562 27.4326 11.0555 26.6753 11.9528C25.918 12.8501 25.5039 13.9871 25.5067 15.1613V23.6579C25.5066 24.4175 25.68 25.167 26.0138 25.8493C26.3476 26.5316 26.8329 27.1286 27.4326 27.5947V29.0674L30.4631 26.9716C30.0279 26.9716 29.597 26.8859 29.195 26.7193C28.7929 26.5528 28.4276 26.3087 28.1199 26.001C27.8122 25.6933 27.5682 25.328 27.4016 24.926C27.2351 24.5239 27.1494 24.0931 27.1494 23.6579V15.1613C27.1068 14.7023 27.1605 14.2395 27.3069 13.8024C27.4534 13.3653 27.6894 12.9636 28 12.623C28.3105 12.2823 28.6887 12.0102 29.1104 11.824C29.5321 11.6378 29.9879 11.5416 30.4489 11.5416C30.9099 11.5416 31.3657 11.6378 31.7874 11.824C32.2091 12.0102 32.5873 12.2823 32.8978 12.623C33.2084 12.9636 33.4444 13.3653 33.5909 13.8024C33.7373 14.2395 33.791 14.7023 33.7484 15.1613V23.6579C33.7575 24.408 33.5074 25.1383 33.0404 25.7254L35.2778 24.7908C35.3224 24.4145 35.3224 24.0342 35.2778 23.6579V15.1613C35.2817 13.9913 34.8716 12.8575 34.12 11.9608C33.3684 11.0641 32.3238 10.4622 31.1711 10.2616V6.94791C31.1711 6.73008 31.0846 6.52117 30.9305 6.36714C30.7765 6.21311 30.5676 6.12658 30.3498 6.12658H22.4763C21.2918 6.1489 20.1639 6.63707 19.3368 7.48529C18.5098 8.33351 18.0504 9.47346 18.058 10.6581V17.0022H15.6507C15.4139 17.0116 15.1903 17.1132 15.0276 17.2854L11.9971 20.7974H11.1475V0.971973C11.1475 0.75414 11.0609 0.54523 10.9069 0.391199C10.7529 0.237168 10.5439 0.150635 10.3261 0.150635H5.93621C5.71838 0.150635 5.50947 0.237168 5.35544 0.391199C5.20141 0.54523 5.11487 0.75414 5.11487 0.971973V20.7974H3.58548C3.36765 20.7974 3.15874 20.8839 3.00471 21.0379C2.85068 21.192 2.76415 21.4009 2.76415 21.6187V30.8234H1.77288C1.55504 30.8234 1.34613 30.9099 1.1921 31.0639C1.03807 31.218 0.951538 31.4269 0.951538 31.6447V35.6098C0.951538 35.8276 1.03807 36.0365 1.1921 36.1905C1.34613 36.3446 1.55504 36.4311 1.77288 36.4311H23.4958L23.7224 34.7884ZM6.75755 1.73667H9.58975V20.7974H6.75755V1.73667ZM4.40682 22.44H12.3653C12.4843 22.4468 12.6032 22.4246 12.7118 22.3752C12.8203 22.3259 12.9152 22.2509 12.9884 22.1568L16.0188 18.6166H21.0602V22.525H18.228C18.0101 22.525 17.8012 22.6115 17.6472 22.7656C17.4932 22.9196 17.4066 23.1285 17.4066 23.3463C17.4066 23.5642 17.4932 23.7731 17.6472 23.9271C17.8012 24.0812 18.0101 24.1677 18.228 24.1677H21.0602V30.8234H16.5853V27.2548C16.5853 27.037 16.4987 26.828 16.3447 26.674C16.1907 26.52 15.9818 26.4334 15.7639 26.4334H9.70304C9.4852 26.4334 9.27629 26.52 9.12226 26.674C8.96823 26.828 8.8817 27.037 8.8817 27.2548V30.8234H4.40682V22.44ZM14.9426 30.9366H10.5244V28.1044H14.9426V30.9366Z" fill="white"/>
</svg>
